<?xml version="1.0" encoding="UTF-8"?>
<svg version="1.1" xmlns="http://www.w3.org/2000/svg" width="23" height="23">
<path d="M0 0 C0.99 0 1.98 0 3 0 C2.67 1.65 2.34 3.3 2 5 C3.65 5.33 5.3 5.66 7 6 C6.814375 7.051875 6.62875 8.10375 6.4375 9.1875 C5.81849462 12.83816032 5.81849462 12.83816032 6.5625 15.75 C7 18 7 18 5 21 C2.28515625 21.43359375 2.28515625 21.43359375 -0.9375 21.4375 C-1.99839844 21.45683594 -3.05929688 21.47617187 -4.15234375 21.49609375 C-7 21 -7 21 -8.859375 19.29296875 C-10.18967065 16.61871003 -10.37022487 14.85005093 -10.3125 11.875 C-10.30863281 11.00617187 -10.30476562 10.13734375 -10.30078125 9.2421875 C-10 7 -10 7 -8 5 C-4.875 4.875 -4.875 4.875 -2 5 C-1.34 3.35 -0.68 1.7 0 0 Z " fill="#161616" transform="translate(14,2)"/>
<path d="M0 0 C0.99 0 1.98 0 3 0 C2.67 1.65 2.34 3.3 2 5 C0.35 5.33 -1.3 5.66 -3 6 C-2.01 4.02 -1.02 2.04 0 0 Z " fill="#494949" transform="translate(14,2)"/>
</svg>
