<?xml version="1.0" encoding="UTF-8"?>
<svg version="1.1" xmlns="http://www.w3.org/2000/svg" width="243" height="243">
<path d="M0 0 C1.60495567 0.11442461 3.20898119 0.24194694 4.8125 0.375 C6.15248047 0.47941406 6.15248047 0.47941406 7.51953125 0.5859375 C10 1 10 1 13 3 C15.55015957 10.17232378 12.00760447 16.4259208 9 23 C3.31208047 34.52785473 3.31208047 34.52785473 -0.2734375 38.55078125 C-2.26755978 40.85599293 -2.26755978 40.85599293 -1.91015625 43.60546875 C-0.33774395 49.01219409 -0.33774395 49.01219409 3.6875 52.625 C4.8321875 52.810625 4.8321875 52.810625 6 53 C6 53.99 6 54.98 6 56 C6.66 56.33 7.32 56.66 8 57 C7.01 58.65 6.02 60.3 5 62 C5.40992188 62.59167969 5.81984375 63.18335938 6.2421875 63.79296875 C6.78101563 64.58316406 7.31984375 65.37335938 7.875 66.1875 C8.40867187 66.96480469 8.94234375 67.74210937 9.4921875 68.54296875 C12.31617569 73.14475261 13.25138152 76.59529732 13 82 C13.7425 82.2475 14.485 82.495 15.25 82.75 C19.68819166 84.76735984 22.09541461 87.57977474 24 92 C24.9838291 96.54928492 25.57803219 100.5701309 23.8125 104.9375 C21.10069033 108.02335238 18.90900709 109.69699764 15 111 C15.66 111.7425 16.32 112.485 17 113.25 C20.18357858 118.00837368 19.62501773 123.51791682 19 129 C17.75 132.5 17.75 132.5 16 135 C15.46375 135.78375 14.9275 136.5675 14.375 137.375 C11.25300413 139.51110243 8.98383521 139.62294242 5.25390625 139.45703125 C1.3756073 138.67061708 -0.31585385 136.88054708 -3 134 C-5.11516273 130.67204772 -5.26970796 127.96960289 -5.25 124.0625 C-5.25773437 122.53302734 -5.25773437 122.53302734 -5.265625 120.97265625 C-4.99523535 117.94667796 -4.27241136 115.74174353 -3 113 C-5.50965614 113.70339566 -5.50965614 113.70339566 -8 115 C-8.3721042 116.32303717 -8.70630173 117.65737935 -9 119 C-10.8125 120.375 -10.8125 120.375 -13 121 C-15.25 120.125 -15.25 120.125 -17 119 C-17 121.64 -17 124.28 -17 127 C-16.401875 126.690625 -15.80375 126.38125 -15.1875 126.0625 C-13 125 -13 125 -10 124 C-8.515 124.99 -8.515 124.99 -7 126 C-6.44478617 130.20376189 -6.53700214 132.29006995 -8.875 135.875 C-11.80038857 138.80038857 -12.57340563 138.96503325 -16.8125 139.3125 C-19.85160002 139.25193822 -21.03790231 138.97978543 -23.8125 137.5 C-27.54907191 133.2296321 -29.00620581 129.4761168 -28.9921875 123.8828125 C-28.38978873 115.77957746 -28.38978873 115.77957746 -27 113 C-28.65 113.33 -30.3 113.66 -32 114 C-31.34 114.66 -30.68 115.32 -30 116 C-30.33 116.66 -30.66 117.32 -31 118 C-30.34 118.33 -29.68 118.66 -29 119 C-30.58894093 131.92059865 -30.58894093 131.92059865 -35 137 C-38.15402242 139.10268161 -40.10552527 139.54845598 -43.87109375 139.4375 C-48.62774044 138.45998728 -51.54739691 135.11544139 -54.20703125 131.2421875 C-57.25929233 125.03375858 -55.0354002 119.26276986 -53 113 C-53.94875 112.38125 -54.8975 111.7625 -55.875 111.125 C-59 109 -59 109 -61 107 C-63.07739281 106.7991471 -65.16383871 106.68691803 -67.25 106.625 C-72.82635041 106.27378235 -75.92921691 105.85074076 -80 102 C-82.72013088 97.5203439 -82.75776793 93.09771151 -82 88 C-79.91036563 83.1214114 -76.71225524 79.71225524 -73 76 C-71.62966425 73.06356626 -71.97633493 72.06821108 -73.0625 68.9375 C-73.371875 67.968125 -73.68125 66.99875 -74 66 C-73.34 65.01 -72.68 64.02 -72 63 C-71.60986284 61.0103005 -71.26797351 59.00980131 -71 57 C-71.75023438 56.89171875 -72.50046875 56.7834375 -73.2734375 56.671875 C-82.86769662 54.30767361 -91.41680192 41.16647165 -96.84765625 33.3359375 C-100.09242129 27.93100855 -100.09242129 27.93100855 -99.734375 24.32421875 C-99 22 -99 22 -97 20.8125 C-96.34 20.544375 -95.68 20.27625 -95 20 C-94.67 19.34 -94.34 18.68 -94 18 C-89.05 18 -84.1 18 -79 18 C-79 18.66 -79 19.32 -79 20 C-77.35 19.67 -75.7 19.34 -74 19 C-74 19.66 -74 20.32 -74 21 C-73.21625 20.814375 -72.4325 20.62875 -71.625 20.4375 C-69 20 -69 20 -67 21 C-67 21.66 -67 22.32 -67 23 C-63.70413017 22.07715645 -60.43467215 21.14489072 -57.1875 20.0625 C-41.42376951 14.80792317 -41.42376951 14.80792317 -35.21484375 15.15625 C-29.40795316 15.63547347 -29.40795316 15.63547347 -24.0546875 13.84375 C-22.96559648 12.81253338 -21.90297607 11.7527125 -20.8671875 10.66796875 C-17.22234189 7.41200834 -12.48190922 5.83166633 -8 4 C-8 3.34 -8 2.68 -8 2 C-2.25 0.875 -2.25 0.875 0 2 C0 1.34 0 0.68 0 0 Z M-71 64 C-70 66 -70 66 -70 66 Z M-43 119 C-43.16681109 121.91652174 -43.16681109 121.91652174 -43 125 C-42.34 125.66 -41.68 126.32 -41 127 C-40.83318891 124.08347826 -40.83318891 124.08347826 -41 121 C-41.66 120.34 -42.32 119.68 -43 119 Z M6 119 C6 121.97 6 124.94 6 128 C6.66 128 7.32 128 8 128 C8 125.36 8 122.72 8 120 C7.34 119.67 6.68 119.34 6 119 Z M-43 127 C-42 129 -42 129 -42 129 Z " fill="#FAF2CE" transform="translate(151,29)"/>
<path d="M0 0 C1.60495567 0.11442461 3.20898119 0.24194694 4.8125 0.375 C6.15248047 0.47941406 6.15248047 0.47941406 7.51953125 0.5859375 C10 1 10 1 13 3 C15.55015957 10.17232378 12.00760447 16.4259208 9 23 C3.31208047 34.52785473 3.31208047 34.52785473 -0.2734375 38.55078125 C-2.26755978 40.85599293 -2.26755978 40.85599293 -1.91015625 43.60546875 C-0.33774395 49.01219409 -0.33774395 49.01219409 3.6875 52.625 C4.8321875 52.810625 4.8321875 52.810625 6 53 C6 53.99 6 54.98 6 56 C6.66 56.33 7.32 56.66 8 57 C7.01 58.65 6.02 60.3 5 62 C5.40992188 62.59167969 5.81984375 63.18335938 6.2421875 63.79296875 C6.78101563 64.58316406 7.31984375 65.37335938 7.875 66.1875 C8.40867187 66.96480469 8.94234375 67.74210937 9.4921875 68.54296875 C12.31617569 73.14475261 13.25138152 76.59529732 13 82 C13.7425 82.2475 14.485 82.495 15.25 82.75 C19.68819166 84.76735984 22.09541461 87.57977474 24 92 C24.9838291 96.54928492 25.57803219 100.5701309 23.8125 104.9375 C21.10069033 108.02335238 18.90900709 109.69699764 15 111 C15.66 111.7425 16.32 112.485 17 113.25 C20.18357858 118.00837368 19.62501773 123.51791682 19 129 C17.75 132.5 17.75 132.5 16 135 C15.46375 135.78375 14.9275 136.5675 14.375 137.375 C11.25300413 139.51110243 8.98383521 139.62294242 5.25390625 139.45703125 C1.3756073 138.67061708 -0.31585385 136.88054708 -3 134 C-5.11516273 130.67204772 -5.26970796 127.96960289 -5.25 124.0625 C-5.25773437 122.53302734 -5.25773437 122.53302734 -5.265625 120.97265625 C-4.99523535 117.94667796 -4.27241136 115.74174353 -3 113 C-5.50965614 113.70339566 -5.50965614 113.70339566 -8 115 C-8.3721042 116.32303717 -8.70630173 117.65737935 -9 119 C-10.8125 120.375 -10.8125 120.375 -13 121 C-15.25 120.125 -15.25 120.125 -17 119 C-17 121.64 -17 124.28 -17 127 C-16.401875 126.690625 -15.80375 126.38125 -15.1875 126.0625 C-13 125 -13 125 -10 124 C-8.515 124.99 -8.515 124.99 -7 126 C-6.44478617 130.20376189 -6.53700214 132.29006995 -8.875 135.875 C-11.80038857 138.80038857 -12.57340563 138.96503325 -16.8125 139.3125 C-19.85160002 139.25193822 -21.03790231 138.97978543 -23.8125 137.5 C-27.54907191 133.2296321 -29.00620581 129.4761168 -28.9921875 123.8828125 C-28.38978873 115.77957746 -28.38978873 115.77957746 -27 113 C-28.65 113.33 -30.3 113.66 -32 114 C-31.34 114.66 -30.68 115.32 -30 116 C-30.33 116.66 -30.66 117.32 -31 118 C-30.34 118.33 -29.68 118.66 -29 119 C-30.58894093 131.92059865 -30.58894093 131.92059865 -35 137 C-38.15402242 139.10268161 -40.10552527 139.54845598 -43.87109375 139.4375 C-48.62774044 138.45998728 -51.54739691 135.11544139 -54.20703125 131.2421875 C-57.25929233 125.03375858 -55.0354002 119.26276986 -53 113 C-53.94875 112.38125 -54.8975 111.7625 -55.875 111.125 C-59 109 -59 109 -61 107 C-63.07739281 106.7991471 -65.16383871 106.68691803 -67.25 106.625 C-72.82635041 106.27378235 -75.92921691 105.85074076 -80 102 C-82.72013088 97.5203439 -82.75776793 93.09771151 -82 88 C-79.91036563 83.1214114 -76.71225524 79.71225524 -73 76 C-71.62966425 73.06356626 -71.97633493 72.06821108 -73.0625 68.9375 C-73.371875 67.968125 -73.68125 66.99875 -74 66 C-73.34 65.01 -72.68 64.02 -72 63 C-71.60986284 61.0103005 -71.26797351 59.00980131 -71 57 C-71.75023438 56.89171875 -72.50046875 56.7834375 -73.2734375 56.671875 C-82.86769662 54.30767361 -91.41680192 41.16647165 -96.84765625 33.3359375 C-100.09242129 27.93100855 -100.09242129 27.93100855 -99.734375 24.32421875 C-99 22 -99 22 -97 20.8125 C-96.34 20.544375 -95.68 20.27625 -95 20 C-94.67 19.34 -94.34 18.68 -94 18 C-89.05 18 -84.1 18 -79 18 C-79 18.66 -79 19.32 -79 20 C-77.35 19.67 -75.7 19.34 -74 19 C-74 19.66 -74 20.32 -74 21 C-73.21625 20.814375 -72.4325 20.62875 -71.625 20.4375 C-69 20 -69 20 -67 21 C-67 21.66 -67 22.32 -67 23 C-63.70413017 22.07715645 -60.43467215 21.14489072 -57.1875 20.0625 C-41.42376951 14.80792317 -41.42376951 14.80792317 -35.21484375 15.15625 C-29.40795316 15.63547347 -29.40795316 15.63547347 -24.0546875 13.84375 C-22.96559648 12.81253338 -21.90297607 11.7527125 -20.8671875 10.66796875 C-17.22234189 7.41200834 -12.48190922 5.83166633 -8 4 C-8 3.34 -8 2.68 -8 2 C-2.25 0.875 -2.25 0.875 0 2 C0 1.34 0 0.68 0 0 Z M-24 16 C-24 16.66 -24 17.32 -24 18 C-22.02 18.66 -20.04 19.32 -18 20 C-21 20 -21 20 -23.703125 19.01953125 C-27.4439364 17.86271635 -30.87361392 17.65550973 -34.75 17.6875 C-35.45519775 17.69241455 -36.16039551 17.6973291 -36.88696289 17.70239258 C-48.4509804 17.96054752 -58.30991792 22.43121884 -67 30 C-66.34 28.68 -65.68 27.36 -65 26 C-72.23993712 22.03527253 -78.75049272 21.83838225 -86.8125 21.875 C-87.68326172 21.87113281 -88.55402344 21.86726563 -89.45117188 21.86328125 C-90.69157227 21.86521484 -90.69157227 21.86521484 -91.95703125 21.8671875 C-93.08588745 21.86887939 -93.08588745 21.86887939 -94.23754883 21.87060547 C-96.02680369 21.8089923 -96.02680369 21.8089923 -97 23 C-97.20568507 32.46151333 -89.56540665 39.52432764 -83.44067383 46.0012207 C-82.92400146 46.53706787 -82.4073291 47.07291504 -81.875 47.625 C-81.38475342 48.14602295 -80.89450684 48.6670459 -80.3894043 49.20385742 C-76.70771115 52.88678211 -75.54552189 53.07574635 -70 54 C-69.34 58.62 -68.68 63.24 -68 68 C-68.99 68 -69.98 68 -71 68 C-71 68.99 -71 69.98 -71 71 C-70.34 71 -69.68 71 -69 71 C-69.33 72.32 -69.66 73.64 -70 75 C-68.02 75 -66.04 75 -64 75 C-63.79375 75.7425 -63.5875 76.485 -63.375 77.25 C-61.60384411 80.79231177 -59.36572049 82.02446841 -56 84 C-57.65 83.34 -59.3 82.68 -61 82 C-60.34 83.32 -59.68 84.64 -59 86 C-62.64756665 83.5682889 -62.73087204 82.06120946 -64 78 C-65.78669232 75.75555866 -65.78669232 75.75555866 -68.1875 75.9375 C-72.97412449 77.74578036 -76.57866996 81.62020728 -79.1875 85.98828125 C-81.03954839 90.57388184 -80.43516845 94.8468036 -78.75 99.3125 C-76.95868815 102.06344319 -75.79192378 103.33260107 -73 105 C-70.18170117 105.36100534 -70.18170117 105.36100534 -67.25 105.1875 C-66.26515625 105.16042969 -65.2803125 105.13335937 -64.265625 105.10546875 C-63.14414063 105.05326172 -63.14414063 105.05326172 -62 105 C-62.08378906 104.24074219 -62.16757813 103.48148437 -62.25390625 102.69921875 C-62.40666016 101.20841797 -62.40666016 101.20841797 -62.5625 99.6875 C-62.71912109 98.20830078 -62.71912109 98.20830078 -62.87890625 96.69921875 C-63 94 -63 94 -62 91 C-61.99613281 92.17755859 -61.99613281 92.17755859 -61.9921875 93.37890625 C-61.75792683 99.74298785 -61.33923096 104.19723568 -56.69140625 108.7890625 C-54.14865914 110.609505 -52.09976212 111.07044914 -49 111 C-48.34 110.34 -47.68 109.68 -47 109 C-39.69565217 108.53623188 -39.69565217 108.53623188 -36 111 C-33.3942313 111.35505425 -33.3942313 111.35505425 -30.5625 111.3125 C-29.61503906 111.32925781 -28.66757813 111.34601563 -27.69140625 111.36328125 C-24.58232039 110.94362235 -23.43137916 109.89052135 -21 108 C-18.89453125 107.7421875 -18.89453125 107.7421875 -16.8125 107.875 C-15.554375 107.91625 -14.29625 107.9575 -13 108 C-12.67 107.67 -12.34 107.34 -12 107 C-11.01 108.98 -10.02 110.96 -9 113 C-3.56623106 111.87398423 -3.56623106 111.87398423 1 109 C0.83293475 104.65630342 0.426148 102.51586337 -2.375 99.125 C-6.90538275 95.4575473 -11.39436775 95.44406953 -17 96 C-19.52125603 96.78990171 -21.63416261 97.79191282 -24 99 C-22.08895362 97.08895362 -19.40439042 96.17661659 -17 95 C-17 94.34 -17 93.68 -17 93 C-18.65 92.34 -20.3 91.68 -22 91 C-17.25 91.75 -17.25 91.75 -15 94 C-11.62977855 95.02440184 -8.50266902 95.42505507 -5 95 C-2.94590022 93.40520203 -1.69323643 91.82090951 -0.25390625 89.6640625 C1 88 1 88 4 87 C3.05125 87.721875 2.1025 88.44375 1.125 89.1875 C-1.67412562 91.49809898 -2.98517558 93.44811452 -4 97 C-3.195625 97.886875 -2.39125 98.77375 -1.5625 99.6875 C0.7039159 102.38287032 1.68417366 104.42063478 2 108 C5.41656024 108.16677282 5.41656024 108.16677282 9 108 C11.34973818 106.10244856 11.34973818 106.10244856 11.125 102.875 C11.08375 101.92625 11.0425 100.9775 11 100 C11.66 100 12.32 100 13 100 C12.67 102.64 12.34 105.28 12 108 C15.15586269 108.21517246 17.33705131 108.35421085 20.1640625 106.84375 C22.66074611 104.3364422 22.59812393 102.81086822 22.625 99.3125 C22.41809542 92.97508924 20.54321234 89.34010402 16 85 C15.0925 84.38125 14.185 83.7625 13.25 83.125 C10.16338452 80.20986316 10.16017203 77.56494577 9.52734375 73.47265625 C8.79623267 70.04455765 7.13544459 67.73603838 5 65 C4.34 64.01 3.68 63.02 3 62 C2.34 62 1.68 62 1 62 C0.01 64.64 -0.98 67.28 -2 70 C-1.505 68.515 -1.505 68.515 -1 67 C-0.896875 66.175 -0.79375 65.35 -0.6875 64.5 C0.16030771 61.41706288 1.32799272 60.63768188 4 59 C3.01 56.03 3.01 56.03 2 53 C1.34 53 0.68 53 0 53 C-0.32613281 52.13117188 -0.65226562 51.26234375 -0.98828125 50.3671875 C-1.42527344 49.21476562 -1.86226563 48.06234375 -2.3125 46.875 C-2.95638672 45.16957031 -2.95638672 45.16957031 -3.61328125 43.4296875 C-4.92372072 40.18865692 -6.39219291 37.10245474 -8 34 C-7.01 35.32 -6.02 36.64 -5 38 C1.46307954 35.46093304 4.00151201 29.38880672 6.6875 23.4375 C6.99494141 22.77814453 7.30238281 22.11878906 7.61914062 21.43945312 C9.79761562 16.69638394 11.14919769 12.95186114 11.0625 7.75 C11.041875 6.5125 11.02125 5.275 11 4 C1.25325764 -0.87337118 -17.66842779 8.33983559 -24 16 Z M-71 64 C-70 66 -70 66 -70 66 Z M-43 119 C-43.16681109 121.91652174 -43.16681109 121.91652174 -43 125 C-42.34 125.66 -41.68 126.32 -41 127 C-40.83318891 124.08347826 -40.83318891 124.08347826 -41 121 C-41.66 120.34 -42.32 119.68 -43 119 Z M6 119 C6 121.97 6 124.94 6 128 C6.66 128 7.32 128 8 128 C8 125.36 8 122.72 8 120 C7.34 119.67 6.68 119.34 6 119 Z M-43 127 C-42 129 -42 129 -42 129 Z " fill="#651A2B" transform="translate(151,29)"/>
<path d="M0 0 C0.25394531 0.86882813 0.50789063 1.73765625 0.76953125 2.6328125 C1.11371094 3.78523438 1.45789063 4.93765625 1.8125 6.125 C2.14894531 7.26195312 2.48539063 8.39890625 2.83203125 9.5703125 C3.91000311 13.01280787 3.91000311 13.01280787 5.59765625 16.09375 C7.83849455 20.73771573 8.00651274 24.96743628 7 30 C4.50561794 34.19922582 1.15544332 37.11326443 -2.6875 40.0625 C-6.25215182 43.04910017 -8.49991203 46.43389205 -9.38671875 50.984375 C-9.68805152 56.34602021 -7.93735849 59.59396226 -5 64 C-9.42761914 62.60846256 -11.9556255 60.47928514 -15 57 C-15 56.34 -15 55.68 -15 55 C-16.98 55 -18.96 55 -21 55 C-20.67 53.68 -20.34 52.36 -20 51 C-20.66 51 -21.32 51 -22 51 C-21.67 49.68 -21.34 48.36 -21 47 C-20.34 47.33 -19.68 47.66 -19 48 C-19.66 43.38 -20.32 38.76 -21 34 C-22.98 33.67 -24.96 33.34 -27 33 C-28.76342773 31.85180664 -28.76342773 31.85180664 -30.18359375 30.41015625 C-30.7156543 29.87793457 -31.24771484 29.34571289 -31.79589844 28.79736328 C-32.33762695 28.2248584 -32.87935547 27.65235352 -33.4375 27.0625 C-34.28683105 26.18440674 -34.28683105 26.18440674 -35.15332031 25.28857422 C-48 11.76012868 -48 11.76012868 -48 3 C-45.83103357 0.83103357 -40.94449516 1.81474906 -37.9375 1.8125 C-37.10283203 1.80025391 -36.26816406 1.78800781 -35.40820312 1.77539062 C-28.55676334 1.75937011 -22.047277 2.47242175 -16 6 C-16.33 7.32 -16.66 8.64 -17 10 C-16.5875 9.61328125 -16.175 9.2265625 -15.75 8.828125 C-5.96039604 0 -5.96039604 0 0 0 Z " fill="#F1AC59" transform="translate(102,49)"/>
<path d="M0 0 C0.82693674 10.95691177 -4.13158542 20.94797051 -10 30 C-12.0625 32.31640625 -12.0625 32.31640625 -14 34 C-14.66 34 -15.32 34 -16 34 C-16.66 33.34 -17.32 32.68 -18 32 C-17.401875 33.134375 -16.80375 34.26875 -16.1875 35.4375 C-14.24758844 39.26267773 -12.9485901 43.08678244 -11.80859375 47.21484375 C-11.54175781 47.80394531 -11.27492187 48.39304688 -11 49 C-10.01 49.33 -9.02 49.66 -8 50 C-7.505 52.475 -7.505 52.475 -7 55 C-7.598125 55.309375 -8.19625 55.61875 -8.8125 55.9375 C-11.64160976 58.60494634 -12.18093835 61.1106903 -13.28515625 64.76953125 C-14.16141648 67.50365471 -15.24021655 69.72694638 -17 72 C-17.99 72 -18.98 72 -20 72 C-19.5153125 71.60167969 -19.030625 71.20335938 -18.53125 70.79296875 C-16.07900385 67.9215887 -16.46866861 65.28662151 -16.5859375 61.640625 C-17.26564428 57.30589119 -19.07500109 54.22838975 -22 51 C-25.73203555 48.33426032 -29.0600313 47.83958934 -33.5 47.25 C-38.64203398 46.43035698 -40.89145965 44.88223752 -43.9765625 40.75390625 C-46.70048473 36.08581052 -46.55931546 30.72666288 -45.5 25.5625 C-44.75044455 21.72102834 -44.92349732 17.90163682 -45 14 C-39.1977825 13.63736141 -35.36000789 14.74315457 -30 17 C-31.44197868 15.55802132 -33.17691571 14.88213756 -35 14 C-32.14162869 7.22034544 -24.60547681 4.57834952 -18.16015625 1.84765625 C-12.55018596 -0.35372449 -5.77021563 -2.88510781 0 0 Z " fill="#EFAA59" transform="translate(162,33)"/>
<path d="M0 0 C2.25 1 2.25 1 4.25 3 C4.58 4.010625 4.91 5.02125 5.25 6.0625 C5.90752556 9.12150806 5.90752556 9.12150806 8.25 10 C7.59 8.68 6.93 7.36 6.25 6 C7.52450447 6.59638333 8.79446877 7.20247416 10.0625 7.8125 C11.12404297 8.31716797 11.12404297 8.31716797 12.20703125 8.83203125 C14.26990853 10.01138174 15.61813874 11.29332562 17.25 13 C20.37716986 14.56358493 23.69897446 14.01108652 27.125 13.9375 C43.73411445 13.74205722 43.73411445 13.74205722 50.25 17 C50.25 17.66 50.25 18.32 50.25 19 C48.27 19.99 46.29 20.98 44.25 22 C45.054375 21.67 45.85875 21.34 46.6875 21 C51.9931909 19.51068326 56.90848834 19.01136174 62.0625 21.1875 C64.59967564 23.28973124 66.4639262 25.22166297 68.25 28 C68.5 30.8125 68.5 30.8125 68.25 33 C67.651875 33.28875 67.05375 33.5775 66.4375 33.875 C64.05672208 35.04742026 64.05672208 35.04742026 61.25 37 C60.26 37 59.27 37 58.25 37 C57.26 35.02 56.27 33.04 55.25 31 C54.59 31.33 53.93 31.66 53.25 32 C52.13625 31.95875 51.0225 31.9175 49.875 31.875 C46.32462508 31.6384102 46.32462508 31.6384102 44.37109375 33.48828125 C41.65625207 35.42316841 39.98850923 35.3708852 36.6875 35.3125 C35.73746094 35.30863281 34.78742188 35.30476563 33.80859375 35.30078125 C31.25 35 31.25 35 28.25 33 C25.48979004 32.62832816 23.06147524 32.82149364 20.25 33 C19.59 33.66 18.93 34.32 18.25 35 C15.15023788 35.07044914 13.10134086 34.609505 10.55859375 32.7890625 C5.91076904 28.19723568 5.49207317 23.74298785 5.2578125 17.37890625 C5.25523438 16.59386719 5.25265625 15.80882813 5.25 15 C4.47083908 20.02125926 4.11983399 23.97703996 5.25 29 C-4.62061289 29.62231535 -4.62061289 29.62231535 -8.8125 27.3125 C-12.32026257 23.12581564 -13.22790618 19.49056213 -13.0625 13.98046875 C-12.52979964 10.60448023 -10.89713036 8.5991578 -8.75 6 C-8.27949219 5.42636719 -7.80898437 4.85273437 -7.32421875 4.26171875 C-3.53275862 0 -3.53275862 0 0 0 Z " fill="#F2AD59" transform="translate(83.75,105)"/>
<path d="M0 0 C3.0625 2.125 3.0625 2.125 5 5 C5.52651051 8.29069071 5.60767534 10.04051261 3.8125 12.875 C1.43963721 14.34781139 -0.25913944 14.22223194 -3 14 C-3.66 16.31 -4.32 18.62 -5 21 C-2.36 19.68 0.28 18.36 3 17 C6 20 6 20 6.4375 22.875 C5.90378013 26.68728477 4.65360557 28.26834721 2 31 C-1.21558704 32.60779352 -4.51241005 32.46277636 -8 32 C-12.4100122 29.64799349 -14.01272645 26.66451295 -15.49609375 22.0703125 C-17.07152751 15.59760015 -15.64001009 9.94576185 -13 4 C-9.87109093 -0.93404892 -5.39763107 -1.10449746 0 0 Z " fill="#611528" transform="translate(89,136)"/>
<path d="M0 0 C2.85636474 1.71381885 3.70979842 3.3363426 5.1875 6.3125 C5.62109375 9.3203125 5.62109375 9.3203125 5.625 12.4375 C5.65400391 13.98824219 5.65400391 13.98824219 5.68359375 15.5703125 C5.1875 18.3125 5.1875 18.3125 3.36328125 20.16796875 C0.52981004 21.65846617 -1.65883546 21.52752258 -4.8125 21.3125 C-4.4825 18.6725 -4.1525 16.0325 -3.8125 13.3125 C-4.4725 13.3125 -5.1325 13.3125 -5.8125 13.3125 C-5.750625 14.735625 -5.750625 14.735625 -5.6875 16.1875 C-5.8125 19.3125 -5.8125 19.3125 -7.8125 21.3125 C-11.4375 21.4375 -11.4375 21.4375 -14.8125 21.3125 C-15.06 20.24 -15.3075 19.1675 -15.5625 18.0625 C-16.81133146 14.31600563 -17.83738658 12.79176118 -20.8125 10.3125 C-19.37564642 5.28351246 -16.87013331 3.35572498 -12.8125 0.3125 C-8.87468163 -1.65640918 -4.163138 -1.01765596 0 0 Z " fill="#F5ECCA" transform="translate(167.8125,115.6875)"/>
<path d="M0 0 C1 1 1 1 1.125 4.75 C1.09076451 7.96813641 0.63105774 10.84471128 0 14 C-0.45541272 21.17275035 0.97868947 24.96803421 5 31 C4.34 31.0825 3.68 31.165 3 31.25 C-6.31742948 33.57935737 -12.27538863 39.52261699 -19 46 C-19.495 44.515 -19.495 44.515 -20 43 C-19.28972656 42.37351563 -18.57945313 41.74703125 -17.84765625 41.1015625 C-16.92855469 40.28429687 -16.00945312 39.46703125 -15.0625 38.625 C-13.68771484 37.40683594 -13.68771484 37.40683594 -12.28515625 36.1640625 C-9.07872757 33.12754713 -8.78565964 31.36941422 -8.625 27.0625 C-8.64718084 21.41377829 -10.29094724 17.56673933 -12.8203125 12.59375 C-14.45147492 9.00735317 -14.77868758 5.90985281 -15 2 C-9.97510856 -0.06149392 -5.3654663 -0.4857159 0 0 Z " fill="#FDF6D0" transform="translate(117,47)"/>
<path d="M0 0 C6.75 -0.125 6.75 -0.125 9 1 C9.82693674 11.95691177 4.86841458 21.94797051 -1 31 C-3.0625 33.31640625 -3.0625 33.31640625 -5 35 C-5.66 35 -6.32 35 -7 35 C-8.2890625 33.46875 -8.2890625 33.46875 -9.625 31.5 C-10.07101563 30.8503125 -10.51703125 30.200625 -10.9765625 29.53125 C-11.31429687 29.0259375 -11.65203125 28.520625 -12 28 C-11.34 27.34 -10.68 26.68 -10 26 C-9.79853598 22.306493 -9.82646811 19.52059568 -11 16 C-7.41782958 10.47355945 -2.0565614 6.12780522 3 2 C2.01 1.34 1.02 0.68 0 0 Z " fill="#F1AC58" transform="translate(153,32)"/>
<path d="M0 0 C7.42857143 1 7.42857143 1 11 2 C11 2.66 11 3.32 11 4 C11.66 4.33 12.32 4.66 13 5 C17.55555556 8.55555556 17.55555556 8.55555556 19 10 C19.14115161 12.67058851 19.04247107 15.32432238 19 18 C20.32 18.33 21.64 18.66 23 19 C23 20.32 23 21.64 23 23 C23.66 23 24.32 23 25 23 C25 25.64 25 28.28 25 31 C19.00488263 30.70249794 16.48210492 28.20245154 12.5625 24.0625 C11.9962793 23.48000488 11.43005859 22.89750977 10.84667969 22.29736328 C5.71702989 16.91608694 0.38273119 11.14819357 -2 4 C-1.0625 1.8125 -1.0625 1.8125 0 0 Z " fill="#F2AE59" transform="translate(56,52)"/>
<path d="M0 0 C2.53717564 2.10223124 4.4014262 4.03416297 6.1875 6.8125 C6.4375 9.625 6.4375 9.625 6.1875 11.8125 C5.589375 12.10125 4.99125 12.39 4.375 12.6875 C1.99422208 13.85992026 1.99422208 13.85992026 -0.8125 15.8125 C-1.8025 15.8125 -2.7925 15.8125 -3.8125 15.8125 C-4.8025 13.8325 -5.7925 11.8525 -6.8125 9.8125 C-7.8025 10.3075 -7.8025 10.3075 -8.8125 10.8125 C-9.92625 10.77125 -11.04 10.73 -12.1875 10.6875 C-15.74529856 10.46414383 -15.74529856 10.46414383 -17.8125 12.3125 C-20.7405281 14.50852107 -23.26300599 14.0172785 -26.8125 13.8125 C-24.9224484 7.57532972 -21.05761571 3.12568089 -15.5 -0.125 C-10.07637209 -1.68774024 -5.28078148 -2.22966329 0 0 Z " fill="#FCF6D1" transform="translate(145.8125,126.1875)"/>
<path d="M0 0 C0.66 0 1.32 0 2 0 C5.79125016 4.26515643 8.17282834 8.52549296 8.9375 14.1875 C9.52393364 18.22947811 10.50041959 19.97440784 13.625 22.625 C14.73143745 23.44240889 15.85069997 24.24404329 17 25 C13.83721158 26.58139421 11.30473042 24.95221046 8 24 C4.80683491 23.7822842 3.06384466 23.97871845 0 25 C-0.06058594 23.86820313 -0.12117187 22.73640625 -0.18359375 21.5703125 C-0.26799917 20.08852855 -0.35264717 18.6067584 -0.4375 17.125 C-0.49647461 16.00544922 -0.49647461 16.00544922 -0.55664062 14.86328125 C-0.71573624 10.80013136 -0.71573624 10.80013136 -2 7 C-1.39239518 4.6505947 -0.72870472 2.31470912 0 0 Z " fill="#F2B05C" transform="translate(152,91)"/>
<path d="M0 0 C0.66 0 1.32 0 2 0 C0.03030303 6.81818182 0.03030303 6.81818182 -3 9 C-3.99 9 -4.98 9 -6 9 C-6.268125 9.94875 -6.53625 10.8975 -6.8125 11.875 C-8 15 -8 15 -11 17 C-17.21773612 17.55515501 -17.21773612 17.55515501 -19.9375 15.625 C-21 14 -21 14 -21 12 C-21.62648438 12.03480469 -22.25296875 12.06960937 -22.8984375 12.10546875 C-23.71570313 12.13253906 -24.53296875 12.15960938 -25.375 12.1875 C-26.18710938 12.22230469 -26.99921875 12.25710937 -27.8359375 12.29296875 C-28.55007812 12.19628906 -29.26421875 12.09960938 -30 12 C-30.66 11.01 -31.32 10.02 -32 9 C-31.34 8.67 -30.68 8.34 -30 8 C-29.67 8.66 -29.34 9.32 -29 10 C-23.88781773 9.6784299 -23.88781773 9.6784299 -19.17578125 7.9765625 C-15.15315083 6.17107308 -10.56364453 6.7526281 -6.21484375 6.734375 C-2.70815856 6.33011305 -2.70815856 6.33011305 -1.06640625 2.953125 C-0.71449219 1.97859375 -0.36257812 1.0040625 0 0 Z " fill="#702530" transform="translate(132,86)"/>
<path d="M0 0 C0.88558594 0.31710938 0.88558594 0.31710938 1.7890625 0.640625 C1.6034375 1.836875 1.4178125 3.033125 1.2265625 4.265625 C0.7579428 7.92346207 0.97425237 11.01924666 1.7890625 14.640625 C-8.13244739 15.26614927 -8.13244739 15.26614927 -12.3359375 12.828125 C-14.2109375 10.640625 -14.2109375 10.640625 -15.2109375 7.640625 C-14.3653125 7.24875 -13.5196875 6.856875 -12.6484375 6.453125 C-9.39558676 4.73798552 -6.75390852 2.84474217 -3.921875 0.53125 C-2.2109375 -0.359375 -2.2109375 -0.359375 0 0 Z " fill="#F8EFCC" transform="translate(87.2109375,119.359375)"/>
<path d="M0 0 C3.625 0.5 3.625 0.5 6.0625 3.5 C6.578125 4.49 7.09375 5.48 7.625 6.5 C6.32832266 9.09335469 5.11894824 10.01711185 2.625 11.5 C-0.625 11.6875 -0.625 11.6875 -3.375 11.5 C-3.705 10.51 -4.035 9.52 -4.375 8.5 C-5.035 8.5 -5.695 8.5 -6.375 8.5 C-6.705 9.82 -7.035 11.14 -7.375 12.5 C-8.375 10.5 -8.375 10.5 -7.88671875 8.625 C-7.61472656 7.92375 -7.34273438 7.2225 -7.0625 6.5 C-6.79824219 5.79875 -6.53398438 5.0975 -6.26171875 4.375 C-4.67796096 1.02608485 -3.69775604 0.54781571 0 0 Z " fill="#7F3B48" transform="translate(100.375,70.5)"/>
<path d="M0 0 C0.66 0.66 1.32 1.32 2 2 C1.79013448 4.72825177 1.3151619 6.51896341 -0.1875 8.8125 C-2.90062649 10.59006563 -4.82709196 10.38851935 -8 10 C-10.375 8.5 -10.375 8.5 -12 7 C-11.6875 4.625 -11.6875 4.625 -11 2 C-6.93150591 -0.71232939 -4.83523216 -0.30699887 0 0 Z " fill="#732930" transform="translate(120,80)"/>
<path d="M0 0 C2.31564618 2.11086114 4.17342833 4.46093583 6 7 C4.68 6.67 3.36 6.34 2 6 C1.690625 6.639375 1.38125 7.27875 1.0625 7.9375 C0 10 0 10 -1 11 C-3.9375 11.1875 -3.9375 11.1875 -7 11 C-9 9 -9 9 -9.3125 6.0625 C-9 3 -9 3 -7.875 1.125 C-4.93705242 -0.63776855 -3.37025536 -0.66083438 0 0 Z " fill="#611127" transform="translate(130,66)"/>
<path d="M0 0 C-1.98097926 1.32065284 -3.98105106 2.61315691 -6 3.875 C-8.68372092 5.77596899 -10.24489186 7.26983178 -12 10 C-10.62845496 12.95409701 -9.01136276 15.44008376 -7 18 C-7.33 18.66 -7.66 19.32 -8 20 C-8.39832031 19.50628906 -8.79664063 19.01257813 -9.20703125 18.50390625 C-9.73683594 17.86324219 -10.26664063 17.22257812 -10.8125 16.5625 C-11.33457031 15.92441406 -11.85664063 15.28632813 -12.39453125 14.62890625 C-14.97822774 12.00749156 -17.67375924 11.82462812 -21.1875 11.75 C-26.01766486 11.78167321 -29.59673512 13.07857533 -34 15 C-34 14.34 -34 13.68 -34 13 C-28.25 10 -28.25 10 -26 10 C-26 9.34 -26 8.68 -26 8 C-30.62 7.34 -35.24 6.68 -40 6 C-40 5.67 -40 5.34 -40 5 C-38.08404032 4.91866209 -36.16708068 4.86065633 -34.25 4.8125 C-32.64898437 4.76029297 -32.64898437 4.76029297 -31.015625 4.70703125 C-27.6019853 5.03866723 -26.59626555 5.88589805 -24 8 C-20.61630264 9.08322985 -17.52905953 9.48503662 -14 9 C-11.95486497 7.43957473 -10.69562396 5.88341079 -9.25390625 3.76171875 C-6.63776945 0.0860873 -4.22316923 -0.22827942 0 0 Z " fill="#712B2E" transform="translate(160,114)"/>
<path d="M0 0 C0.99 0.99 1.98 1.98 3 3 C3.556875 2.649375 4.11375 2.29875 4.6875 1.9375 C7.57159181 0.76827359 9.05190765 1.14660484 12 2 C12.66 2.33 13.32 2.66 14 3 C14 3.99 14 4.98 14 6 C10.66666667 6 7.33333333 6 4 6 C2.79371992 8.33214148 1.8345262 10.49642139 1 13 C1.66 13 2.32 13 3 13 C3.33 11.35 3.66 9.7 4 8 C4.66 9.32 5.32 10.64 6 12 C5.34 12.66 4.68 13.32 4 14 C3.35232207 16.57061311 3.35232207 16.57061311 3 19 C0.7522025 16.94766315 -0.0022242 15.99332739 -1 13 C-1.14632404 8.46395485 -1.10636545 4.42546179 0 0 Z " fill="#F4AE56" transform="translate(117,56)"/>
<path d="M0 0 C1.85625 0.0309375 1.85625 0.0309375 3.75 0.0625 C2.43 1.3825 1.11 2.7025 -0.25 4.0625 C-1.9 3.4025 -3.55 2.7425 -5.25 2.0625 C-5.25 2.7225 -5.25 3.3825 -5.25 4.0625 C-7.49756784 5.21332685 -9.74781748 6.35826858 -12 7.5 C-12.95132813 7.98823242 -12.95132813 7.98823242 -13.921875 8.48632812 C-16.98359908 10.03313665 -19.85615621 11.4540078 -23.25 12.0625 C-23.25 10.7425 -23.25 9.4225 -23.25 8.0625 C-20.83535319 6.91223914 -18.41846682 5.76717795 -16 4.625 C-15.31808594 4.29951172 -14.63617188 3.97402344 -13.93359375 3.63867188 C-13.26972656 3.32607422 -12.60585937 3.01347656 -11.921875 2.69140625 C-11.3144043 2.40338135 -10.70693359 2.11535645 -10.08105469 1.81860352 C-6.68631329 0.41680164 -3.65809296 -0.06096822 0 0 Z " fill="#F1B95B" transform="translate(154.25,32.9375)"/>
<path d="M0 0 C0.66 0 1.32 0 2 0 C2.08636719 0.59167969 2.17273438 1.18335937 2.26171875 1.79296875 C2.96389821 5.74192297 3.74082201 8.59869215 5.9375 12 C10.40236157 14.91582796 14.76193628 14.89909159 20 15 C19.649375 14.175 19.29875 13.35 18.9375 12.5 C17.76127268 8.10875135 18.09741075 5.43773047 19 1 C19.66 0.67 20.32 0.34 21 0 C21.495 8.415 21.495 8.415 22 17 C6.54290522 16.4167134 6.54290522 16.4167134 2 12 C-0.80476313 8.43030146 -0.14466817 4.34004512 0 0 Z " fill="#5A0F23" transform="translate(69,119)"/>
<path d="M0 0 C0.33 0.66 0.66 1.32 1 2 C1.66 2.165 2.32 2.33 3 2.5 C3.66 2.665 4.32 2.83 5 3 C6.32229189 5.64458379 6.09677194 7.67761301 6.0625 10.625 C6.05347656 11.62789062 6.04445313 12.63078125 6.03515625 13.6640625 C6.02355469 14.43492188 6.01195313 15.20578125 6 16 C2.12108981 11.62058527 2.12108981 11.62058527 1.5 8.4375 C0.84193691 5.22944243 -0.50608481 4.05381251 -3 2 C-3.99 1.67 -4.98 1.34 -6 1 C-6 1.66 -6 2.32 -6 3 C-5.34 3.33 -4.68 3.66 -4 4 C-6.31 4.66 -8.62 5.32 -11 6 C-8.67640938 -0.47285958 -6.6985661 -0.12404752 0 0 Z " fill="#F5B562" transform="translate(103,63)"/>
<path d="M0 0 C0.33 0.66 0.66 1.32 1 2 C1.78375 1.814375 2.5675 1.62875 3.375 1.4375 C6 1 6 1 8 2 C8 2.66 8 3.32 8 4 C9.11375 3.649375 10.2275 3.29875 11.375 2.9375 C15 2 15 2 17 3 C15.84906278 6.45281166 14.6794007 7.38082163 11.9375 9.6875 C11.20402344 10.31011719 10.47054687 10.93273438 9.71484375 11.57421875 C8.86599609 12.27998047 8.86599609 12.27998047 8 13 C8 10 8 10 9 7 C4.7494534 5.14038586 0.50066475 4.06795435 -4 3 C-3 1 -3 1 0 0 Z " fill="#551927" transform="translate(76,48)"/>
<path d="M0 0 C5.28 0 10.56 0 16 0 C16.33 0.99 16.66 1.98 17 3 C14.88074396 5.11925604 10.3803907 4.41831017 7.4375 4.5625 C6.63119141 4.60568359 5.82488281 4.64886719 4.99414062 4.69335938 C2.99631195 4.79975262 0.9981793 4.90040888 -1 5 C-1.66 6.65 -2.32 8.3 -3 10 C-3.66 9.67 -4.32 9.34 -5 9 C-4.75 6.625 -4.75 6.625 -4 4 C-1.9375 2.6875 -1.9375 2.6875 0 2 C0 1.34 0 0.68 0 0 Z " fill="#6E3035" transform="translate(56,47)"/>
<path d="M0 0 C3.10398978 -0.08710289 6.20766548 -0.14042309 9.3125 -0.1875 C10.19357422 -0.21263672 11.07464844 -0.23777344 11.98242188 -0.26367188 C13.25375977 -0.27817383 13.25375977 -0.27817383 14.55078125 -0.29296875 C15.72120972 -0.31653442 15.72120972 -0.31653442 16.9152832 -0.34057617 C19.53303211 0.08708043 20.24583188 1.07810266 22 3 C22.99 3.33 23.98 3.66 25 4 C25 4.66 25 5.32 25 6 C23.741875 5.71125 22.48375 5.4225 21.1875 5.125 C11.18369405 2.82359213 11.18369405 2.82359213 1 2 C0.01 3.485 0.01 3.485 -1 5 C-0.67 3.35 -0.34 1.7 0 0 Z " fill="#F5BF5C" transform="translate(55,51)"/>
<path d="M0 0 C0.90492187 0.02320312 1.80984375 0.04640625 2.7421875 0.0703125 C4.10730469 0.09738281 4.10730469 0.09738281 5.5 0.125 C6.19867188 0.14820312 6.89734375 0.17140625 7.6171875 0.1953125 C7.5546875 2.5078125 7.5546875 2.5078125 6.6171875 5.1953125 C3.1796875 7.0703125 3.1796875 7.0703125 -0.3828125 8.1953125 C-3.1667308 6.80335335 -3.36180247 5.03955471 -4.3828125 2.1953125 C-2.3828125 0.1953125 -2.3828125 0.1953125 0 0 Z " fill="#EF6472" transform="translate(116.3828125,94.8046875)"/>
<path d="M0 0 C0.66 0.33 1.32 0.66 2 1 C-0.97 3.64 -3.94 6.28 -7 9 C-4.03 9.495 -4.03 9.495 -1 10 C-1 10.66 -1 11.32 -1 12 C-2.98 12 -4.96 12 -7 12 C-7.79560764 14.91499943 -8.25322499 17.74561419 -8.5625 20.75 C-8.64628906 21.54921875 -8.73007813 22.3484375 -8.81640625 23.171875 C-8.87699219 23.77515625 -8.93757812 24.3784375 -9 25 C-9.33 25 -9.66 25 -10 25 C-10.09087891 23.96939453 -10.09087891 23.96939453 -10.18359375 22.91796875 C-10.26738281 22.01691406 -10.35117188 21.11585937 -10.4375 20.1875 C-10.51871094 19.29417969 -10.59992188 18.40085937 -10.68359375 17.48046875 C-10.93489767 14.87256441 -10.93489767 14.87256441 -12 12 C-8.88409801 7.28744016 -4.54709562 3.30697864 0 0 Z " fill="#76292D" transform="translate(154,36)"/>
<path d="M0 0 C0.33 0 0.66 0 1 0 C1.33 2.31 1.66 4.62 2 7 C2.67546875 7.08636719 3.3509375 7.17273438 4.046875 7.26171875 C11.42367067 8.42367067 11.42367067 8.42367067 14.625 11.625 C15.305625 12.800625 15.305625 12.800625 16 14 C15.40832031 13.855625 14.81664062 13.71125 14.20703125 13.5625 C6.59893511 11.75056895 6.59893511 11.75056895 -1 13 C-0.67 8.71 -0.34 4.42 0 0 Z " fill="#EDA756" transform="translate(153,103)"/>
<path d="M0 0 C3.3 0.33 6.6 0.66 10 1 C10 1.99 10 2.98 10 4 C8.9275 3.9175 7.855 3.835 6.75 3.75 C1.67484541 3.71368405 -2.64756652 5.38604246 -7.36328125 7.125 C-10 8 -10 8 -13 8 C-13 7.34 -13 6.68 -13 6 C-11.35 5.34 -9.7 4.68 -8 4 C-8 3.34 -8 2.68 -8 2 C-2.25 0.875 -2.25 0.875 0 2 C0 1.34 0 0.68 0 0 Z " fill="#5B1F2C" transform="translate(151,29)"/>
<path d="M0 0 C1.796875 0.14453125 1.796875 0.14453125 4 1 C5.703125 3.51171875 5.703125 3.51171875 7.25 6.6875 C8.03117188 8.24017578 8.03117188 8.24017578 8.828125 9.82421875 C10.04590785 13.12441028 10.2298884 15.51510082 10 19 C12.475 19.99 12.475 19.99 15 21 C14.67 21.99 14.34 22.98 14 24 C13.319375 23.360625 12.63875 22.72125 11.9375 22.0625 C8.53591161 19.6741507 6.09566299 19.32122847 2 19 C2 18.67 2 18.34 2 18 C3.98 18 5.96 18 8 18 C6.41723898 11.93274941 4.77344405 7.03125873 1 2 C0.67 1.34 0.34 0.68 0 0 Z " fill="#702834" transform="translate(154,92)"/>
<path d="M0 0 C-0.38671875 0.43570313 -0.7734375 0.87140625 -1.171875 1.3203125 C-4.43984501 5.05744652 -7.34140589 8.8076016 -10 13 C-10.66 12.34 -11.32 11.68 -12 11 C-11.91135636 7.01103641 -11.24125948 5.2934237 -8.6875 2.1875 C-3.71681416 -1.85840708 -3.71681416 -1.85840708 0 0 Z " fill="#F3BE5B" transform="translate(84,108)"/>
<path d="M0 0 C4.93223152 0.4623967 9.49746576 2.48894377 13 6 C13.71637701 8.95300448 13.41688107 10.92550211 13 14 C14.32 14.33 15.64 14.66 17 15 C17 16.32 17 17.64 17 19 C17.66 19 18.32 19 19 19 C19 19.66 19 20.32 19 21 C17.68 20.34 16.36 19.68 15 19 C15 17.68 15 16.36 15 15 C13.68 15 12.36 15 11 15 C11 13.35 11 11.7 11 10 C10.01 9.67 9.02 9.34 8 9 C8.99 8.67 9.98 8.34 11 8 C11 7.34 11 6.68 11 6 C9.948125 5.5978125 9.948125 5.5978125 8.875 5.1875 C5.8350176 3.9318551 2.9272226 2.49764877 0 1 C0 0.67 0 0.34 0 0 Z " fill="#7A2C2D" transform="translate(62,56)"/>
<path d="M0 0 C0 0.33 0 0.66 0 1 C-3.63 1.33 -7.26 1.66 -11 2 C-10.67 2.66 -10.34 3.32 -10 4 C-12.36595933 6.61500768 -14.86049226 8.38999603 -18 10 C-18.66 9.67 -19.32 9.34 -20 9 C-18.5459375 8.1028125 -18.5459375 8.1028125 -17.0625 7.1875 C-13.76947958 5.28872491 -13.76947958 5.28872491 -13 2 C-14.918125 2.061875 -14.918125 2.061875 -16.875 2.125 C-19.0546875 2.1953125 -19.0546875 2.1953125 -21 2 C-21.66 1.34 -22.32 0.68 -23 0 C-15.19636521 -1.14500285 -7.83007996 -0.79773542 0 0 Z " fill="#A8634A" transform="translate(129,120)"/>
<path d="M0 0 C1.65 1.65 3.3 3.3 5 5 C3.70332266 7.59335469 2.49394824 8.51711185 0 10 C-3.25 10.1875 -3.25 10.1875 -6 10 C-6.33 8.68 -6.66 7.36 -7 6 C-6.34 5.67 -5.68 5.34 -5 5 C-5 5.66 -5 6.32 -5 7 C-3.68 7 -2.36 7 -1 7 C-0.67 5.35 -0.34 3.7 0 2 C-0.99 1.67 -1.98 1.34 -3 1 C-2.01 0.67 -1.02 0.34 0 0 Z " fill="#651627" transform="translate(103,72)"/>
<path d="M0 0 C0.79921875 0.01804687 1.5984375 0.03609375 2.421875 0.0546875 C3.02515625 0.07789062 3.6284375 0.10109375 4.25 0.125 C4.25 0.455 4.25 0.785 4.25 1.125 C2.27 1.125 0.29 1.125 -1.75 1.125 C-2.08 1.785 -2.41 2.445 -2.75 3.125 C-4.8125 3.75 -4.8125 3.75 -6.75 4.125 C-6.09 5.775 -5.43 7.425 -4.75 9.125 C-6.07 8.465 -7.39 7.805 -8.75 7.125 C-8.75 6.465 -8.75 5.805 -8.75 5.125 C-9.68972656 5.17720703 -9.68972656 5.17720703 -10.6484375 5.23046875 C-11.46570313 5.25753906 -12.28296875 5.28460938 -13.125 5.3125 C-13.93710938 5.34730469 -14.74921875 5.38210937 -15.5859375 5.41796875 C-16.30007812 5.32128906 -17.01421875 5.22460938 -17.75 5.125 C-18.41 4.135 -19.07 3.145 -19.75 2.125 C-19.09 1.795 -18.43 1.465 -17.75 1.125 C-17.42 1.785 -17.09 2.445 -16.75 3.125 C-11.58107211 2.76712051 -11.58107211 2.76712051 -6.78125 1.09375 C-4.3556695 -0.06306532 -2.67028679 -0.07853785 0 0 Z " fill="#621725" transform="translate(119.75,92.875)"/>
<path d="M0 0 C0.66 0.33 1.32 0.66 2 1 C3.55300709 6.73418003 2.85080686 11.72826985 0 17 C-0.99 17.33 -1.98 17.66 -3 18 C-2.67 16.865625 -2.34 15.73125 -2 14.5625 C-0.97817066 10.56093057 -0.86513635 6.89676114 -1.02734375 2.78515625 C-1 1 -1 1 0 0 Z " fill="#6E2A35" transform="translate(162,31)"/>
<path d="M0 0 C3.11198065 1.49836105 6.0534615 3.19933758 9 5 C8.01 5.495 8.01 5.495 7 6 C6.34 5.67 5.68 5.34 5 5 C4.67 5.99 4.34 6.98 4 8 C3.34 7.67 2.68 7.34 2 7 C2.33 6.34 2.66 5.68 3 5 C2.34 5 1.68 5 1 5 C1 5.66 1 6.32 1 7 C-0.32 7 -1.64 7 -3 7 C-3 6.34 -3 5.68 -3 5 C-2.34 5 -1.68 5 -1 5 C-0.67 3.35 -0.34 1.7 0 0 Z " fill="#8B4D58" transform="translate(127,67)"/>
<path d="M0 0 C0.66 0 1.32 0 2 0 C2.09796875 0.59167969 2.1959375 1.18335937 2.296875 1.79296875 C3.25769801 6.87042139 4.2985201 10.17513744 8 14 C4.74322102 13.73593684 3.38010847 13.43253722 1.1875 10.9375 C-0.38336495 7.05167618 -0.21217982 4.17286983 0 0 Z " fill="#722937" transform="translate(69,119)"/>
<path d="M0 0 C1.65 0.33 3.3 0.66 5 1 C5 2.65 5 4.3 5 6 C6.32 6 7.64 6 9 6 C9.33 7.65 9.66 9.3 10 11 C9.34 11 8.68 11 8 11 C8 10.01 8 9.02 8 8 C6.35 7.67 4.7 7.34 3 7 C3 6.01 3 5.02 3 4 C1.68 3.67 0.36 3.34 -1 3 C-0.67 2.01 -0.34 1.02 0 0 Z " fill="#D08638" transform="translate(68,65)"/>
<path d="M0 0 C4.75 0.875 4.75 0.875 7 2 C7 2.99 7 3.98 7 5 C3.66666667 5 0.33333333 5 -3 5 C-2.01 3.35 -1.02 1.7 0 0 Z " fill="#FCF1C8" transform="translate(124,57)"/>
<path d="M0 0 C4.29 0.33 8.58 0.66 13 1 C13 1.66 13 2.32 13 3 C8.05 3 3.1 3 -2 3 C-1.34 2.01 -0.68 1.02 0 0 Z " fill="#E8DBC3" transform="translate(116,90)"/>
<path d="M0 0 C0.33 0.99 0.66 1.98 1 3 C-0.65 3 -2.3 3 -4 3 C-4.12375 3.5775 -4.2475 4.155 -4.375 4.75 C-5.00648824 7.02335767 -5.88858191 8.9253529 -7 11 C-7.9765625 4.9453125 -7.9765625 4.9453125 -8 3 C-7.34 2.34 -6.68 1.68 -6 1 C-2.875 1.375 -2.875 1.375 0 2 C0 1.34 0 0.68 0 0 Z " fill="#D18837" transform="translate(153,46)"/>
<path d="M0 0 C3.3 0 6.6 0 10 0 C9.67 0.99 9.34 1.98 9 3 C9 2.34 9 1.68 9 1 C5.88214887 1.64644661 5.88214887 1.64644661 5 4 C2.69 4 0.38 4 -2 4 C-1.34 2.68 -0.68 1.36 0 0 Z " fill="#EF4A65" transform="translate(114,95)"/>
<path d="M0 0 C4.24822374 0.47202486 6.19989709 2.96655518 9 6 C8.67 6.99 8.34 7.98 8 9 C7.01 7.68 6.02 6.36 5 5 C3.02 5.33 1.04 5.66 -1 6 C-0.67 5.34 -0.34 4.68 0 4 C0.66 4 1.32 4 2 4 C2 3.34 2 2.68 2 2 C1.34 2 0.68 2 0 2 C0 1.34 0 0.68 0 0 Z " fill="#BD7A53" transform="translate(97,64)"/>
<path d="M0 0 C0.33 0 0.66 0 1 0 C1 3.3 1 6.6 1 10 C0.01 9.67 -0.98 9.34 -2 9 C-1.125 1.125 -1.125 1.125 0 0 Z " fill="#833C39" transform="translate(89,119)"/>
<path d="M0 0 C0.33 0.66 0.66 1.32 1 2 C-0.65 1.67 -2.3 1.34 -4 1 C-4 1.66 -4 2.32 -4 3 C-3.34 3.33 -2.68 3.66 -2 4 C-4.31 4.66 -6.62 5.32 -9 6 C-7.01260984 0.46369883 -5.82303895 -0.15323787 0 0 Z " fill="#FBF1CC" transform="translate(101,63)"/>
<path d="M0 0 C1.9375 0.375 1.9375 0.375 4 1 C4.33 1.66 4.66 2.32 5 3 C2.63404067 5.61500768 0.13950774 7.38999603 -3 9 C-3.66 8.67 -4.32 8.34 -5 8 C-4.030625 7.401875 -3.06125 6.80375 -2.0625 6.1875 C1.23052042 4.28872491 1.23052042 4.28872491 2 1 C1.34 0.67 0.68 0.34 0 0 Z " fill="#C5834A" transform="translate(114,121)"/>
<path d="M0 0 C0.33 0.99 0.66 1.98 1 3 C1.66 3.33 2.32 3.66 3 4 C0.25 8.875 0.25 8.875 -2 10 C-2.25 3.375 -2.25 3.375 0 0 Z " fill="#4F1324" transform="translate(156,82)"/>
<path d="M0 0 C0.45375 0.474375 0.9075 0.94875 1.375 1.4375 C2.93258204 3.09027808 2.93258204 3.09027808 5 4 C4.0409375 4.556875 4.0409375 4.556875 3.0625 5.125 C0.36141928 7.58052793 0.31592995 9.44578805 0 13 C-0.33 13 -0.66 13 -1 13 C-1.07654536 8.48382401 -1.10228696 4.40914783 0 0 Z " fill="#F7BF72" transform="translate(117,56)"/>
<path d="M0 0 C0.66 0.33 1.32 0.66 2 1 C2 2.65 2 4.3 2 6 C0.02 6.99 0.02 6.99 -2 8 C-2 6.35 -2 4.7 -2 3 C-1.34 3 -0.68 3 0 3 C0 2.01 0 1.02 0 0 Z " fill="#DDC9B5" transform="translate(150,132)"/>
<path d="M0 0 C0.66 0 1.32 0 2 0 C4.17204 2.96187272 5.83561997 5.50685991 7 9 C3.17475764 7.549046 1.80909034 5.61818068 0 2 C0 1.34 0 0.68 0 0 Z " fill="#F1C15B" transform="translate(93,127)"/>
<path d="M0 0 C-0.33 0.99 -0.66 1.98 -1 3 C-3.97 3 -6.94 3 -10 3 C-10 2.34 -10 1.68 -10 1 C-2.25 0 -2.25 0 0 0 Z " fill="#600E1E" transform="translate(164,165)"/>
<path d="M0 0 C0.99 0 1.98 0 3 0 C3 2.64 3 5.28 3 8 C0.9375 5.6875 0.9375 5.6875 -1 3 C-0.67 2.01 -0.34 1.02 0 0 Z " fill="#F0A955" transform="translate(106,71)"/>
<path d="M0 0 C0 3 0 3 -1 6 C-2.98 6 -4.96 6 -7 6 C-5.625 4.5 -5.625 4.5 -4 3 C-3.34 3 -2.68 3 -2 3 C-2 2.34 -2 1.68 -2 1 C-1.34 0.67 -0.68 0.34 0 0 Z " fill="#691929" transform="translate(130,71)"/>
<path d="M0 0 C2.475 0.99 2.475 0.99 5 2 C4.34 3.32 3.68 4.64 3 6 C2.01 5.67 1.02 5.34 0 5 C0 3.35 0 1.7 0 0 Z " fill="#DAC5B0" transform="translate(168,130)"/>
<path d="M0 0 C1.485 0.99 1.485 0.99 3 2 C3 2.66 3 3.32 3 4 C3.66 4 4.32 4 5 4 C4.67 5.98 4.34 7.96 4 10 C1.81024227 6.71536341 1.00193437 3.79303725 0 0 Z " fill="#F2C15B" transform="translate(154,95)"/>
<path d="M0 0 C0.66 0.33 1.32 0.66 2 1 C0.515 4.96 0.515 4.96 -1 9 C-1.66 9 -2.32 9 -3 9 C-2.25 2.25 -2.25 2.25 0 0 Z " fill="#B76F49" transform="translate(121,60)"/>
<path d="M0 0 C2.34058637 2.12780579 3.70700306 4.11562221 5 7 C4.01 7 3.02 7 2 7 C1.01 5.02 0.02 3.04 -1 1 C-0.67 0.67 -0.34 0.34 0 0 Z " fill="#6B202F" transform="translate(53,56)"/>
<path d="M0 0 C-3.96 1.98 -3.96 1.98 -8 4 C-8 3.01 -8 2.02 -8 1 C-4.59449725 -1.06762667 -4.18836538 -1.04709135 0 0 Z " fill="#722536" transform="translate(101,49)"/>
<path d="M0 0 C1.65 0 3.3 0 5 0 C5 1.32 5 2.64 5 4 C3.35 4 1.7 4 0 4 C0 2.68 0 1.36 0 0 Z " fill="#F6B45E" transform="translate(124,61)"/>
<path d="M0 0 C0 0.99 0 1.98 0 3 C-1.98 3.99 -1.98 3.99 -4 5 C-2.68 3.35 -1.36 1.7 0 0 Z " fill="#000000" transform="translate(168,163)"/>
<path d="M0 0 C0 0.99 0 1.98 0 3 C-1.98 3.99 -1.98 3.99 -4 5 C-2.68 3.35 -1.36 1.7 0 0 Z " fill="#000000" transform="translate(154,64)"/>
<path d="M0 0 C1.32 0.99 2.64 1.98 4 3 C3.67 3.66 3.34 4.32 3 5 C1.5 3.625 1.5 3.625 0 2 C0 1.34 0 0.68 0 0 Z " fill="#000000" transform="translate(60,71)"/>
<path d="M0 0 C0 0.99 0 1.98 0 3 C-0.99 3 -1.98 3 -3 3 C-2.01 2.01 -1.02 1.02 0 0 Z " fill="#000000" transform="translate(118,164)"/>
<path d="M0 0 C1.32 1.32 2.64 2.64 4 4 C2.68 3.34 1.36 2.68 0 2 C0 1.34 0 0.68 0 0 Z " fill="#000000" transform="translate(98,163)"/>
<path d="M0 0 C0 0.99 0 1.98 0 3 C-0.99 3 -1.98 3 -3 3 C-2.01 2.01 -1.02 1.02 0 0 Z " fill="#000000" transform="translate(94,164)"/>
<path d="M0 0 C0.66 0.33 1.32 0.66 2 1 C0.68 1.99 -0.64 2.98 -2 4 C-1.34 2.68 -0.68 1.36 0 0 Z " fill="#000000" transform="translate(74,106)"/>
<path d="M0 0 C1.32 1.32 2.64 2.64 4 4 C2.68 3.34 1.36 2.68 0 2 C0 1.34 0 0.68 0 0 Z " fill="#000000" transform="translate(68,80)"/>
<path d="M0 0 C0.33 0.66 0.66 1.32 1 2 C0.34 2.66 -0.32 3.32 -1 4 C-1 1 -1 1 0 0 Z " fill="#000000" transform="translate(158,88)"/>
<path d="M0 0 C0 0.99 0 1.98 0 3 C-0.66 2.67 -1.32 2.34 -2 2 C-1.34 1.34 -0.68 0.68 0 0 Z " fill="#000000" transform="translate(94,147)"/>
<path d="M0 0 C0.66 0.33 1.32 0.66 2 1 C1.01 1.66 0.02 2.32 -1 3 C-0.67 2.01 -0.34 1.02 0 0 Z " fill="#000000" transform="translate(52,48)"/>
<path d="M0 0 C0.66 0.33 1.32 0.66 2 1 C1.01 1 0.02 1 -1 1 C-0.67 0.67 -0.34 0.34 0 0 Z " fill="#000000" transform="translate(135,154)"/>
<path d="M0 0 C0.66 0.33 1.32 0.66 2 1 C1.01 1 0.02 1 -1 1 C-0.67 0.67 -0.34 0.34 0 0 Z " fill="#000000" transform="translate(87,153)"/>
<path d="M0 0 C0.66 0.33 1.32 0.66 2 1 C1.01 1 0.02 1 -1 1 C-0.67 0.67 -0.34 0.34 0 0 Z " fill="#000000" transform="translate(172,137)"/>
<path d="M0 0 C0 3 0 3 0 3 Z " fill="#000000" transform="translate(175,134)"/>
<path d="M0 0 C0.99 0.495 0.99 0.495 2 1 C1.67 1.66 1.34 2.32 1 3 C0.67 2.01 0.34 1.02 0 0 Z " fill="#000000" transform="translate(159,93)"/>
<path d="M0 0 C0.99 0.495 0.99 0.495 2 1 C1.67 1.66 1.34 2.32 1 3 C0.67 2.01 0.34 1.02 0 0 Z " fill="#000000" transform="translate(56,66)"/>
<path d="M0 0 C0.66 0.66 1.32 1.32 2 2 C1.34 2 0.68 2 0 2 C0 1.34 0 0.68 0 0 Z " fill="#000000" transform="translate(148,164)"/>
<path d="M0 0 C0.66 0 1.32 0 2 0 C1.67 0.66 1.34 1.32 1 2 C0.67 1.34 0.34 0.68 0 0 Z " fill="#000000" transform="translate(167,140)"/>
<path d="M0 0 C0.66 0.66 1.32 1.32 2 2 C1.34 2 0.68 2 0 2 C0 1.34 0 0.68 0 0 Z " fill="#000000" transform="translate(77,100)"/>
<path d="" fill="#000000" transform="translate(0,0)"/>
<path d="M0 0 C0.99 0.495 0.99 0.495 2 1 C1.01 1.495 1.01 1.495 0 2 C0 1.34 0 0.68 0 0 Z " fill="#000000" transform="translate(125,41)"/>
<path d="M0 0 C2 1 2 1 2 1 Z " fill="#000000" transform="translate(140,167)"/>
<path d="" fill="#000000" transform="translate(0,0)"/>
<path d="" fill="#000000" transform="translate(0,0)"/>
<path d="" fill="#000000" transform="translate(0,0)"/>
<path d="" fill="#000000" transform="translate(0,0)"/>
<path d="" fill="#000000" transform="translate(0,0)"/>
<path d="" fill="#000000" transform="translate(0,0)"/>
<path d="" fill="#000000" transform="translate(0,0)"/>
<path d="" fill="#000000" transform="translate(0,0)"/>
<path d="" fill="#000000" transform="translate(0,0)"/>
<path d="M0 0 C2 1 2 1 2 1 Z " fill="#000000" transform="translate(141,149)"/>
<path d="" fill="#000000" transform="translate(0,0)"/>
<path d="" fill="#000000" transform="translate(0,0)"/>
<path d="M0 0 C2 1 2 1 2 1 Z " fill="#000000" transform="translate(96,142)"/>
<path d="" fill="#000000" transform="translate(0,0)"/>
<path d="M0 0 C2 1 2 1 2 1 Z " fill="#000000" transform="translate(77,136)"/>
<path d="M0 0 C2 1 2 1 2 1 Z " fill="#000000" transform="translate(73,134)"/>
<path d="" fill="#000000" transform="translate(0,0)"/>
<path d="" fill="#000000" transform="translate(0,0)"/>
<path d="" fill="#000000" transform="translate(0,0)"/>
<path d="" fill="#000000" transform="translate(0,0)"/>
<path d="" fill="#000000" transform="translate(0,0)"/>
<path d="" fill="#000000" transform="translate(0,0)"/>
<path d="M0 0 C2 1 2 1 2 1 Z " fill="#000000" transform="translate(166,110)"/>
<path d="" fill="#000000" transform="translate(0,0)"/>
<path d="" fill="#000000" transform="translate(0,0)"/>
<path d="M0 0 C2 1 2 1 2 1 Z " fill="#000000" transform="translate(75,86)"/>
<path d="M0 0 C2 1 2 1 2 1 Z " fill="#000000" transform="translate(73,85)"/>
<path d="M0 0 C2 1 2 1 2 1 Z " fill="#000000" transform="translate(155,80)"/>
<path d="" fill="#000000" transform="translate(0,0)"/>
<path d="" fill="#000000" transform="translate(0,0)"/>
<path d="" fill="#000000" transform="translate(0,0)"/>
<path d="" fill="#000000" transform="translate(0,0)"/>
<path d="" fill="#000000" transform="translate(0,0)"/>
<path d="" fill="#000000" transform="translate(0,0)"/>
<path d="" fill="#000000" transform="translate(0,0)"/>
<path d="" fill="#000000" transform="translate(0,0)"/>
<path d="" fill="#000000" transform="translate(0,0)"/>
<path d="M0 0 C2 1 2 1 2 1 Z " fill="#000000" transform="translate(91,49)"/>
<path d="" fill="#000000" transform="translate(0,0)"/>
<path d="M0 0 C2 1 2 1 2 1 Z " fill="#000000" transform="translate(129,38)"/>
<path d="M0 0 C2 1 2 1 2 1 Z " fill="#000000" transform="translate(132,36)"/>
<path d="M0 0 C2 1 2 1 2 1 Z " fill="#000000" transform="translate(134,35)"/>
<path d="M0 0 C2 1 2 1 2 1 Z " fill="#000000" transform="translate(136,34)"/>
<path d="M0 0 C2 1 2 1 2 1 Z " fill="#000000" transform="translate(138,33)"/>
<path d="M0 0 C2 1 2 1 2 1 Z " fill="#000000" transform="translate(141,32)"/>
<path d="M0 0 C2 1 2 1 2 1 Z " fill="#000000" transform="translate(161,29)"/>
<path d="" fill="#000000" transform="translate(0,0)"/>
<path d="" fill="#000000" transform="translate(0,0)"/>
<path d="" fill="#000000" transform="translate(0,0)"/>
<path d="" fill="#000000" transform="translate(0,0)"/>
<path d="" fill="#000000" transform="translate(0,0)"/>
<path d="" fill="#000000" transform="translate(0,0)"/>
<path d="" fill="#000000" transform="translate(0,0)"/>
<path d="" fill="#000000" transform="translate(0,0)"/>
<path d="" fill="#000000" transform="translate(0,0)"/>
<path d="" fill="#000000" transform="translate(0,0)"/>
<path d="" fill="#000000" transform="translate(0,0)"/>
<path d="" fill="#000000" transform="translate(0,0)"/>
<path d="" fill="#000000" transform="translate(0,0)"/>
<path d="" fill="#000000" transform="translate(0,0)"/>
<path d="" fill="#000000" transform="translate(0,0)"/>
<path d="" fill="#000000" transform="translate(0,0)"/>
<path d="" fill="#000000" transform="translate(0,0)"/>
<path d="" fill="#000000" transform="translate(0,0)"/>
<path d="" fill="#000000" transform="translate(0,0)"/>
<path d="" fill="#000000" transform="translate(0,0)"/>
<path d="" fill="#000000" transform="translate(0,0)"/>
<path d="" fill="#000000" transform="translate(0,0)"/>
<path d="" fill="#000000" transform="translate(0,0)"/>
<path d="" fill="#000000" transform="translate(0,0)"/>
<path d="" fill="#000000" transform="translate(0,0)"/>
<path d="" fill="#000000" transform="translate(0,0)"/>
<path d="" fill="#000000" transform="translate(0,0)"/>
<path d="" fill="#000000" transform="translate(0,0)"/>
<path d="" fill="#000000" transform="translate(0,0)"/>
<path d="" fill="#000000" transform="translate(0,0)"/>
<path d="" fill="#000000" transform="translate(0,0)"/>
<path d="" fill="#000000" transform="translate(0,0)"/>
<path d="" fill="#000000" transform="translate(0,0)"/>
<path d="" fill="#000000" transform="translate(0,0)"/>
<path d="" fill="#000000" transform="translate(0,0)"/>
<path d="" fill="#000000" transform="translate(0,0)"/>
<path d="" fill="#000000" transform="translate(0,0)"/>
<path d="" fill="#000000" transform="translate(0,0)"/>
<path d="" fill="#000000" transform="translate(0,0)"/>
<path d="" fill="#000000" transform="translate(0,0)"/>
<path d="" fill="#000000" transform="translate(0,0)"/>
<path d="" fill="#000000" transform="translate(0,0)"/>
<path d="" fill="#000000" transform="translate(0,0)"/>
<path d="" fill="#000000" transform="translate(0,0)"/>
<path d="" fill="#000000" transform="translate(0,0)"/>
<path d="" fill="#000000" transform="translate(0,0)"/>
<path d="" fill="#000000" transform="translate(0,0)"/>
<path d="" fill="#000000" transform="translate(0,0)"/>
<path d="" fill="#000000" transform="translate(0,0)"/>
<path d="" fill="#000000" transform="translate(0,0)"/>
<path d="" fill="#000000" transform="translate(0,0)"/>
<path d="" fill="#000000" transform="translate(0,0)"/>
<path d="" fill="#000000" transform="translate(0,0)"/>
<path d="" fill="#000000" transform="translate(0,0)"/>
<path d="" fill="#000000" transform="translate(0,0)"/>
<path d="" fill="#000000" transform="translate(0,0)"/>
<path d="" fill="#000000" transform="translate(0,0)"/>
<path d="" fill="#000000" transform="translate(0,0)"/>
<path d="" fill="#000000" transform="translate(0,0)"/>
<path d="" fill="#000000" transform="translate(0,0)"/>
<path d="" fill="#000000" transform="translate(0,0)"/>
<path d="" fill="#000000" transform="translate(0,0)"/>
<path d="" fill="#000000" transform="translate(0,0)"/>
<path d="" fill="#000000" transform="translate(0,0)"/>
<path d="" fill="#000000" transform="translate(0,0)"/>
<path d="" fill="#000000" transform="translate(0,0)"/>
<path d="" fill="#000000" transform="translate(0,0)"/>
<path d="" fill="#000000" transform="translate(0,0)"/>
<path d="" fill="#000000" transform="translate(0,0)"/>
<path d="" fill="#000000" transform="translate(0,0)"/>
<path d="" fill="#000000" transform="translate(0,0)"/>
<path d="" fill="#000000" transform="translate(0,0)"/>
<path d="" fill="#000000" transform="translate(0,0)"/>
<path d="" fill="#000000" transform="translate(0,0)"/>
<path d="" fill="#000000" transform="translate(0,0)"/>
<path d="" fill="#000000" transform="translate(0,0)"/>
<path d="" fill="#000000" transform="translate(0,0)"/>
<path d="" fill="#000000" transform="translate(0,0)"/>
<path d="" fill="#000000" transform="translate(0,0)"/>
<path d="" fill="#000000" transform="translate(0,0)"/>
<path d="" fill="#000000" transform="translate(0,0)"/>
<path d="" fill="#000000" transform="translate(0,0)"/>
<path d="" fill="#000000" transform="translate(0,0)"/>
<path d="" fill="#000000" transform="translate(0,0)"/>
<path d="" fill="#000000" transform="translate(0,0)"/>
<path d="" fill="#000000" transform="translate(0,0)"/>
<path d="" fill="#000000" transform="translate(0,0)"/>
<path d="" fill="#000000" transform="translate(0,0)"/>
<path d="" fill="#000000" transform="translate(0,0)"/>
<path d="" fill="#000000" transform="translate(0,0)"/>
<path d="" fill="#000000" transform="translate(0,0)"/>
<path d="" fill="#000000" transform="translate(0,0)"/>
<path d="" fill="#000000" transform="translate(0,0)"/>
</svg>
