<?xml version="1.0" encoding="UTF-8"?>
<svg version="1.1" xmlns="http://www.w3.org/2000/svg" width="31" height="31">
<path d="M0 0 C4.61862787 2.57577324 8.30640263 4.9192079 10 10 C10.54096392 15.73421758 9.57356201 18.50752204 6 23 C3.20341482 26.24403881 1.00249481 26.90542502 -3.3125 27.3125 C-8.38517063 26.88261266 -11.04686239 24.68373932 -14.8125 21.4375 C-17.62145591 18.03718495 -17.35429368 14.18066548 -17 10 C-12.69650508 2.28338843 -9.06255593 -0.76801321 0 0 Z M-13 8 C-14.57455739 11.14911479 -14.34799118 13.52008816 -14 17 C-12.22719439 19.97672584 -10.14391985 22.42804007 -7 24 C-2.44093956 24.52963135 -2.44093956 24.52963135 1.7578125 22.953125 C5.32627792 20.02250123 6.84665539 18.32898658 7.375 13.75 C6.88072704 8.80727042 5.46171699 7.46171699 2 4 C-4.37522241 0.81238879 -8.53713415 3.53713415 -13 8 Z " fill="#FFFFFF" transform="translate(19,2)"/>
<path d="M0 0 C-0.56748126 3.97236879 -1.55358503 6.7943528 -4 10 C-7.25171122 11.96457553 -9.18692647 13 -13 13 C-12.43251874 9.02763121 -11.44641497 6.2056472 -9 3 C-5.74828878 1.03542447 -3.81307353 0 0 0 Z " fill="#FFFFFF" transform="translate(22,9)"/>
</svg>
