<?xml version="1.0" encoding="UTF-8"?>
<svg version="1.1" xmlns="http://www.w3.org/2000/svg" width="31" height="31">
<path d="M0 0 C2.45243461 1.90063682 3.62927427 3.25854855 5 6 C5.37942283 10.55307393 5.49103644 13.01792713 3.4375 17.125 C0.57693884 20.49899521 -2.5402445 23.25940716 -6 26 C-7.29787866 24.75645114 -8.58806759 23.5048736 -9.875 22.25 C-10.59429688 21.55390625 -11.31359375 20.8578125 -12.0546875 20.140625 C-15.67166333 16.16049899 -16.34888848 13.13534662 -16.18359375 7.89453125 C-15.82446588 4.18863732 -14.70151632 2.61648404 -11.9375 0.1875 C-7.77393196 -1.49564453 -4.29564875 -1.2043875 0 0 Z M-13 6 C-13.71747234 10.30483401 -13.32162975 12.4026876 -11.25 16.25 C-9.26731965 18.67327599 -7.51494426 20.20361124 -5 22 C0.59901894 16.79456643 0.59901894 16.79456643 2.75 9.75 C2.31113561 5.93677355 2.31113561 5.93677355 -0.1875 3.5 C-5.56979653 0.62944185 -8.89863923 1.42991229 -13 6 Z " fill="#FFFFFF" transform="translate(21,3)"/>
<path d="M0 0 C1.98 0.495 1.98 0.495 4 1 C3.67 2.65 3.34 4.3 3 6 C1.68 5.67 0.36 5.34 -1 5 C-0.67 3.35 -0.34 1.7 0 0 Z " fill="#FFFFFF" transform="translate(14,10)"/>
</svg>
