<svg width="60" height="61" viewBox="0 0 60 61" fill="none" xmlns="http://www.w3.org/2000/svg">
<g filter="url(#filter0_d_116_105)">
<rect x="9.99994" y="5.09747" width="40" height="40" rx="20" fill="#5CB15A"/>
<g clip-path="url(#clip0_116_105)">
<path d="M42.1503 28.867L40.2383 20.5038C40.2343 20.4865 40.2292 20.4697 40.2234 20.4534C40.0779 19.9244 39.3769 19.5247 38.0108 19.1884C37.751 17.8232 36.5492 16.7877 35.1095 16.7877C35.0177 16.7877 34.9256 16.7921 34.8336 16.8007C34.3317 15.8317 33.3198 15.2032 32.2092 15.2032C31.8702 15.2032 31.5335 15.2619 31.2162 15.3749C30.7424 14.6386 29.9251 14.1827 29.0268 14.1827C28.1285 14.1827 27.3113 14.6386 26.8375 15.3749C26.5202 15.2619 26.1835 15.2032 25.8445 15.2032C24.7339 15.2032 23.722 15.8318 23.22 16.8007C23.1281 16.792 23.036 16.7877 22.9442 16.7877C21.5045 16.7877 20.3027 17.8232 20.0429 19.1884C18.6449 19.5326 17.943 19.943 17.8206 20.4906C17.8187 20.4972 17.8165 20.5037 17.815 20.5105L15.9033 28.867C15.8957 28.9003 15.8918 28.9345 15.8918 28.9687C15.8918 29.8437 17.2581 30.624 19.9525 31.2878C22.5562 31.9293 25.7788 32.2825 29.0268 32.2825C32.2748 32.2825 35.4974 31.9293 38.101 31.2878C40.7956 30.624 42.1618 29.8437 42.1618 28.9688C42.1618 28.9345 42.158 28.9004 42.1503 28.867ZM38.0361 20.1381C38.9051 20.3739 39.2087 20.5813 39.3065 20.6707C39.1941 20.7739 38.8091 21.0332 37.612 21.3104C37.8337 20.9569 37.9794 20.5579 38.0361 20.1381ZM22.9441 17.7007C23.0945 17.7007 23.2463 17.7178 23.3955 17.7514C23.6199 17.8021 23.8468 17.6779 23.9251 17.4616C24.2169 16.6569 24.9882 16.1162 25.8445 16.1162C26.1864 16.1162 26.5246 16.2024 26.8226 16.3655C26.9363 16.4277 27.071 16.4387 27.1933 16.3957C27.3156 16.3527 27.4138 16.2597 27.4635 16.14C27.7267 15.5056 28.3403 15.0957 29.0268 15.0957C29.7134 15.0957 30.3269 15.5056 30.5901 16.14C30.6398 16.2597 30.738 16.3527 30.8603 16.3957C30.9826 16.4387 31.1174 16.4277 31.231 16.3655C31.529 16.2024 31.8672 16.1162 32.2092 16.1162C33.0655 16.1162 33.8367 16.6569 34.1285 17.4616C34.2068 17.6778 34.4338 17.8022 34.6582 17.7514C34.8073 17.7178 34.9592 17.7007 35.1095 17.7007C36.2349 17.7007 37.1199 18.6167 37.1505 19.7417C37.1716 20.5203 36.6162 21.2044 36.0748 21.5958C34.1292 21.8878 31.635 22.0481 29.0268 22.0481C26.4834 22.0481 24.0486 21.8956 22.1249 21.6172C21.4063 21.2821 20.9032 20.5349 20.9032 19.7417C20.9031 18.6163 21.8187 17.7007 22.9441 17.7007ZM20.0173 20.1382C20.0745 20.5592 20.2215 20.9582 20.4425 21.3106C19.2447 21.0334 18.8595 20.7739 18.7472 20.6707C18.8449 20.5813 19.1484 20.374 20.0173 20.1382ZM37.68 30.4503C35.1799 31.0431 32.1067 31.3695 29.0268 31.3695C25.9469 31.3695 22.8738 31.0431 20.3736 30.4503C17.9108 29.8663 16.9358 29.2293 16.8137 28.9817L18.5009 21.6066C18.6739 21.7037 18.8371 21.7694 18.9331 21.8081C19.5057 22.0386 20.3138 22.2436 21.335 22.4176C23.3936 22.7681 26.1253 22.9612 29.0268 22.9612C31.9284 22.9612 34.6601 22.7681 36.7187 22.4176C37.7398 22.2436 38.5479 22.0386 39.1205 21.8081C39.2167 21.7693 39.3803 21.7035 39.5537 21.6061L41.24 28.9817C41.1179 29.2292 40.1429 29.8663 37.68 30.4503Z" fill="white"/>
<path d="M34.5805 23.3253C33.5197 23.3253 32.6367 24.1015 32.4695 25.1156H25.5841C25.4169 24.1014 24.5339 23.3253 23.473 23.3253C22.2934 23.3253 21.3336 24.2851 21.3336 25.4647C21.3336 25.9353 21.4874 26.3859 21.7656 26.7538C21.4874 27.1216 21.3336 27.5723 21.3336 28.0428C21.3336 29.2225 22.2934 30.1823 23.473 30.1823C24.5339 30.1823 25.4169 29.4061 25.5841 28.3919H32.4695C32.6366 29.4062 33.5197 30.1823 34.5805 30.1823C35.7602 30.1823 36.7199 29.2225 36.7199 28.0428C36.7199 27.5723 36.5662 27.1216 36.288 26.7538C36.5662 26.3859 36.7199 25.9353 36.7199 25.4647C36.7199 24.2851 35.7602 23.3253 34.5805 23.3253ZM35.3684 27.1034C35.6471 27.3374 35.8069 27.6798 35.8069 28.0429C35.8069 28.7191 35.2567 29.2692 34.5805 29.2692C33.9042 29.2692 33.3541 28.7191 33.3541 28.0429C33.3541 28.0165 33.3552 27.9904 33.3568 27.9644C33.3648 27.8386 33.3204 27.715 33.2341 27.6231C33.1478 27.5311 33.0273 27.479 32.9012 27.479H25.1523C25.0262 27.479 24.9058 27.5311 24.8195 27.6231C24.7331 27.715 24.6887 27.8386 24.6967 27.9644C24.6984 27.9904 24.6995 28.0165 24.6995 28.0429C24.6995 28.7191 24.1493 29.2692 23.473 29.2692C22.7968 29.2692 22.2467 28.7191 22.2467 28.0429C22.2467 27.6799 22.4065 27.3375 22.6851 27.1034C22.7884 27.0167 22.8481 26.8887 22.8481 26.7538C22.8481 26.619 22.7885 26.491 22.6851 26.4042C22.4065 26.1703 22.2467 25.8279 22.2467 25.4648C22.2467 24.7886 22.7968 24.2384 23.473 24.2384C24.1493 24.2384 24.6995 24.7886 24.6995 25.4648C24.6995 25.4912 24.6984 25.5173 24.6967 25.5433C24.6887 25.6691 24.7331 25.7927 24.8195 25.8846C24.9057 25.9766 25.0262 26.0287 25.1523 26.0287H32.9012C33.0273 26.0287 33.1478 25.9766 33.2341 25.8846C33.3204 25.7926 33.3648 25.6691 33.3568 25.5433C33.3552 25.5173 33.3541 25.4912 33.3541 25.4648C33.3541 24.7886 33.9042 24.2384 34.5805 24.2384C35.2567 24.2384 35.8069 24.7886 35.8069 25.4648C35.8069 25.8278 35.6471 26.1702 35.3684 26.4042C35.2651 26.491 35.2055 26.619 35.2055 26.7538C35.2055 26.8887 35.2651 27.0167 35.3684 27.1034Z" fill="white"/>
</g>
</g>
<defs>
<filter id="filter0_d_116_105" x="-6.10352e-05" y="0.0974731" width="60" height="60" filterUnits="userSpaceOnUse" color-interpolation-filters="sRGB">
<feFlood flood-opacity="0" result="BackgroundImageFix"/>
<feColorMatrix in="SourceAlpha" type="matrix" values="0 0 0 0 0 0 0 0 0 0 0 0 0 0 0 0 0 0 127 0" result="hardAlpha"/>
<feOffset dy="5"/>
<feGaussianBlur stdDeviation="5"/>
<feColorMatrix type="matrix" values="0 0 0 0 0 0 0 0 0 0 0 0 0 0 0 0 0 0 0.1 0"/>
<feBlend mode="normal" in2="BackgroundImageFix" result="effect1_dropShadow_116_105"/>
<feBlend mode="normal" in="SourceGraphic" in2="effect1_dropShadow_116_105" result="shape"/>
</filter>
<clipPath id="clip0_116_105">
<rect width="26.27" height="26.27" fill="white" transform="translate(15.8918 10.0976)"/>
</clipPath>
</defs>
</svg>
