<?xml version="1.0" encoding="UTF-8"?>
<svg version="1.1" xmlns="http://www.w3.org/2000/svg" width="40" height="41">
<path d="M0 0 C1.08087891 -0.020625 2.16175781 -0.04125 3.27539062 -0.0625 C13.43458651 -0.11239169 13.43458651 -0.11239169 18.1875 3.25 C21.33844312 7.97641468 20.55945426 13.02936299 20.55810547 18.59179688 C20.56247091 20.61154 20.59877576 22.62908209 20.63671875 24.6484375 C20.64251953 26.5665625 20.64251953 26.5665625 20.6484375 28.5234375 C20.65665527 29.69310059 20.66487305 30.86276367 20.67333984 32.06787109 C20.08786354 35.9025938 18.91823994 37.540261 16.1875 40.25 C11.06321138 41.95809621 5.67677073 41.47680315 0.3125 41.5 C-0.87214844 41.520625 -2.05679687 41.54125 -3.27734375 41.5625 C-4.42074219 41.56765625 -5.56414063 41.5728125 -6.7421875 41.578125 C-8.30815674 41.59214355 -8.30815674 41.59214355 -9.90576172 41.60644531 C-13.27335228 41.19348695 -15.10167348 40.26234219 -17.8125 38.25 C-20.96290396 33.52439405 -20.22252437 28.47120566 -20.23803711 22.90820312 C-20.24992301 20.88808471 -20.29909792 18.87103518 -20.34960938 16.8515625 C-20.35669922 15.5728125 -20.36378906 14.2940625 -20.37109375 12.9765625 C-20.38454834 11.80689941 -20.39800293 10.63723633 -20.41186523 9.43212891 C-19.63489789 5.30708112 -18.03409732 3.8515918 -14.8125 1.25 C-9.9861433 -0.35878557 -5.05437181 0.02385544 0 0 Z " fill="#F576AC" transform="translate(19.8125,-0.25)"/>
<path d="M0 0 C2.375 1.625 2.375 1.625 4 4 C4.50299316 8.10777749 4.32749345 9.50875983 2 13 C1.01 13.33 0.02 13.66 -1 14 C-0.67 14.99 -0.34 15.98 0 17 C-0.66 17 -1.32 17 -2 17 C-2 17.66 -2 18.32 -2 19 C-2.66 19 -3.32 19 -4 19 C-4 18.34 -4 17.68 -4 17 C-4.66 17 -5.32 17 -6 17 C-6 16.01 -6 15.02 -6 14 C-6.66 13.401875 -7.32 12.80375 -8 12.1875 C-10 10 -10 10 -10.5 7 C-10 4 -10 4 -8.375 1.625 C-5.28813568 -0.48706506 -3.6717087 -0.61195145 0 0 Z " fill="#FDEAF2" transform="translate(23,11)"/>
<path d="M0 0 C3 0.25 3 0.25 5 2.25 C5.25 5.25 5.25 5.25 5 8.25 C3 10.25 3 10.25 0 10.5 C-3 10.25 -3 10.25 -5 8.25 C-5.25 5.25 -5.25 5.25 -5 2.25 C-3 0.25 -3 0.25 0 0 Z " fill="#F577AC" transform="translate(20,12.75)"/>
<path d="M0 0 C1.8125 1.25 1.8125 1.25 2.8125 3.25 C3.07110135 7.30142119 3.11691554 8.79337669 0.8125 12.25 C-2.8125 12.4375 -2.8125 12.4375 -6.1875 12.25 C-6.1875 11.92 -6.1875 11.59 -6.1875 11.25 C-4.2075 10.59 -2.2275 9.93 -0.1875 9.25 C-0.1875 7.27 -0.1875 5.29 -0.1875 3.25 C-2.1675 2.59 -4.1475 1.93 -6.1875 1.25 C-2.76721014 -0.94875776 -2.76721014 -0.94875776 0 0 Z " fill="#FCDDEB" transform="translate(24.1875,11.75)"/>
</svg>
