<?xml version="1.0" encoding="UTF-8"?>
<svg version="1.1" xmlns="http://www.w3.org/2000/svg" width="20" height="20">
<path d="M0 0 C0.99 0.66 1.98 1.32 3 2 C2.67 3.32 2.34 4.64 2 6 C0.741875 5.773125 -0.51625 5.54625 -1.8125 5.3125 C-5.0766694 4.87816697 -5.0766694 4.87816697 -8.0625 6.125 C-9.21700473 8.03456211 -9.21700473 8.03456211 -8.8125 10.5625 C-8.15372967 13.14441272 -8.15372967 13.14441272 -6 15 C-2.69316534 14.71016731 -2.69316534 14.71016731 0 13 C-1.32 13 -2.64 13 -4 13 C-4 11.35 -4 9.7 -4 8 C-0.7 8 2.6 8 6 8 C5.50811391 16.48503512 5.50811391 16.48503512 3.26171875 18.76171875 C-0.7091412 20.93574743 -4.61000301 20.72339207 -9 20 C-12.125 18.125 -12.125 18.125 -14 15 C-14.61891622 11.54856631 -14.64661848 8.44863191 -14 5 C-10.29578828 -0.06242269 -6.05507158 -0.7074242 0 0 Z " fill="#1476D5" transform="translate(14,0)"/>
<path d="M0 0 C0.99 0.66 1.98 1.32 3 2 C2.67 3.32 2.34 4.64 2 6 C0.741875 5.773125 -0.51625 5.54625 -1.8125 5.3125 C-5.05403969 4.87033264 -5.05403969 4.87033264 -8 6.125 C-9.28470316 8.53381842 -9.2181301 10.30972879 -9 13 C-10.65 13.66 -12.3 14.32 -14 15 C-14.62805304 5.85833915 -14.62805304 5.85833915 -12.125 2.4375 C-8.20242907 -0.21600387 -4.67227194 -0.5458694 0 0 Z " fill="#E64523" transform="translate(14,0)"/>
<path d="M0 0 C0.804375 0.5259375 0.804375 0.5259375 1.625 1.0625 C4.73274763 2.28924249 6.79431703 1.72856431 10 1 C10.33 2.98 10.66 4.96 11 7 C1.82713348 7.63019694 1.82713348 7.63019694 -1.625 5 C-2.07875 4.34 -2.5325 3.68 -3 3 C-2.01 2.01 -1.02 1.02 0 0 Z " fill="#11A140" transform="translate(4,13)"/>
<path d="M0 0 C2.475 0.99 2.475 0.99 5 2 C5 3.98 5 5.96 5 8 C3.35 8.66 1.7 9.32 0 10 C0 6.7 0 3.4 0 0 Z " fill="#ECC900" transform="translate(0,5)"/>
<path d="M0 0 C2.97 0.495 2.97 0.495 6 1 C6.33 2.32 6.66 3.64 7 5 C5.1875 5.625 5.1875 5.625 3 6 C2.01 5.34 1.02 4.68 0 4 C0 2.68 0 1.36 0 0 Z " fill="#C5391E" transform="translate(10,0)"/>
<path d="M0 0 C2 3.75 2 3.75 2 6 C0.35 6 -1.3 6 -3 6 C-2.42655063 3.13275314 -2.1385485 2.1385485 0 0 Z " fill="#0D883F" transform="translate(13,14)"/>
</svg>
