<?xml version="1.0" encoding="UTF-8"?>
<svg version="1.1" xmlns="http://www.w3.org/2000/svg" width="60" height="61">
<path d="M0 0 C1.68577711 0.61674772 3.35448038 1.28272222 5 2 C5.66 1.67 6.32 1.34 7 1 C7.66 1.33 8.32 1.66 9 2 C9 1.34 9 0.68 9 0 C9.99 0.33 10.98 0.66 12 1 C11.34 1 10.68 1 10 1 C10 1.66 10 2.32 10 3 C10.78375 3.28875 11.5675 3.5775 12.375 3.875 C15 5 15 5 17 7 C18.9001177 8.24174796 18.9001177 8.24174796 21 9 C21.99 8.67 22.98 8.34 24 8 C23.34 9.32 22.68 10.64 22 12 C22.66 12.66 23.32 13.32 24 14 C24.495 14.99 24.495 14.99 25 16 C26.32 15.67 27.64 15.34 29 15 C29 15.66 29 16.32 29 17 C28.01 17.66 27.02 18.32 26 19 C26.66 20.98 27.32 22.96 28 25 C28.66 25 29.32 25 30 25 C30 25.66 30 26.32 30 27 C29.01 27.495 29.01 27.495 28 28 C28.020625 28.721875 28.04125 29.44375 28.0625 30.1875 C28.00113268 32.94902933 27.73901807 35.33953493 27 38 C26.01 38.495 26.01 38.495 25 39 C25.165 39.598125 25.33 40.19625 25.5 40.8125 C26 43 26 43 26 46 C23.08235 47.9451 21.37462715 48.45276317 18 49 C17.67 49.99 17.34 50.98 17 52 C16.34 52 15.68 52 15 52 C14.505 52.99 14.505 52.99 14 54 C13.01 54 12.02 54 11 54 C10.67 54.99 10.34 55.98 10 57 C3.375 58.125 3.375 58.125 0 57 C-0.66 57.66 -1.32 58.32 -2 59 C-3.485 58.505 -3.485 58.505 -5 58 C-4.67 57.34 -4.34 56.68 -4 56 C-5.051875 56.0825 -6.10375 56.165 -7.1875 56.25 C-11.65413899 55.95710564 -12.77964891 54.96611284 -16 52 C-17.66324401 50.99431758 -19.32936253 49.99335201 -21 49 C-21.66 48.34 -22.32 47.68 -23 47 C-22.67 46.34 -22.34 45.68 -22 45 C-22.66 44.67 -23.32 44.34 -24 44 C-27.24039443 39.13940836 -29 35.02803102 -29 29 C-29.33 28.34 -29.66 27.68 -30 27 C-29.01 27 -28.02 27 -27 27 C-27.33 25.02 -27.66 23.04 -28 21 C-27.34 21 -26.68 21 -26 21 C-26.226875 20.401875 -26.45375 19.80375 -26.6875 19.1875 C-26.790625 18.465625 -26.89375 17.74375 -27 17 C-25.75 15.5 -25.75 15.5 -24 14 C-23.484375 13.278125 -22.96875 12.55625 -22.4375 11.8125 C-21.7259375 10.9153125 -21.7259375 10.9153125 -21 10 C-20.34 10 -19.68 10 -19 10 C-18.814375 9.21625 -18.62875 8.4325 -18.4375 7.625 C-17 5 -17 5 -13.6875 3.8125 C-12.470625 3.544375 -11.25375 3.27625 -10 3 C-8.6078125 2.4121875 -8.6078125 2.4121875 -7.1875 1.8125 C-6.1046875 1.4103125 -6.1046875 1.4103125 -5 1 C-4.34 1.33 -3.68 1.66 -3 2 C-2.01 1.34 -1.02 0.68 0 0 Z " fill="#DE4E4E" transform="translate(30,1)"/>
<path d="M0 0 C0.99 0.33 1.98 0.66 3 1 C2.34 1 1.68 1 1 1 C1 1.66 1 2.32 1 3 C1.78375 3.28875 2.5675 3.5775 3.375 3.875 C6 5 6 5 8 7 C9.9001177 8.24174796 9.9001177 8.24174796 12 9 C12.99 8.67 13.98 8.34 15 8 C14.34 9.32 13.68 10.64 13 12 C13.66 12.66 14.32 13.32 15 14 C15.495 14.99 15.495 14.99 16 16 C17.32 15.67 18.64 15.34 20 15 C20 15.66 20 16.32 20 17 C19.01 17.66 18.02 18.32 17 19 C17.66 20.98 18.32 22.96 19 25 C19.66 25 20.32 25 21 25 C21 25.66 21 26.32 21 27 C20.01 27.495 20.01 27.495 19 28 C19.020625 28.721875 19.04125 29.44375 19.0625 30.1875 C19.00113268 32.94902933 18.73901807 35.33953493 18 38 C17.01 38.495 17.01 38.495 16 39 C16.165 39.598125 16.33 40.19625 16.5 40.8125 C17 43 17 43 17 46 C14.08235 47.9451 12.37462715 48.45276317 9 49 C8.67 49.99 8.34 50.98 8 52 C7.34 52 6.68 52 6 52 C5.505 52.99 5.505 52.99 5 54 C4.01 54 3.02 54 2 54 C1.67 54.99 1.34 55.98 1 57 C-5.625 58.125 -5.625 58.125 -9 57 C-9.66 57.66 -10.32 58.32 -11 59 C-12.485 58.505 -12.485 58.505 -14 58 C-13.67 57.34 -13.34 56.68 -13 56 C-14.051875 56.0825 -15.10375 56.165 -16.1875 56.25 C-20.65413899 55.95710564 -21.77964891 54.96611284 -25 52 C-26.66324401 50.99431758 -28.32936253 49.99335201 -30 49 C-30.66 48.34 -31.32 47.68 -32 47 C-31.67 46.34 -31.34 45.68 -31 45 C-31.66 44.67 -32.32 44.34 -33 44 C-36.24039443 39.13940836 -38 35.02803102 -38 29 C-38.33 28.34 -38.66 27.68 -39 27 C-38.01 27 -37.02 27 -36 27 C-36.33 25.02 -36.66 23.04 -37 21 C-36.34 21 -35.68 21 -35 21 C-35.226875 20.401875 -35.45375 19.80375 -35.6875 19.1875 C-35.790625 18.465625 -35.89375 17.74375 -36 17 C-34.75 15.5 -34.75 15.5 -33 14 C-32.484375 13.278125 -31.96875 12.55625 -31.4375 11.8125 C-30.7259375 10.9153125 -30.7259375 10.9153125 -30 10 C-29.34 10 -28.68 10 -28 10 C-27.34 8.35 -26.68 6.7 -26 5 C-24.68 5 -23.36 5 -22 5 C-22.51831322 8.83551785 -23.25627013 10.36601932 -26 13 C-29.09927529 19.38944797 -29.11266901 26.77911603 -26.8125 33.4375 C-23.36686057 38.30892126 -19.83780409 42.02403835 -13.95703125 43.51953125 C-8.04446686 44.32725863 -3.36257642 43.70215427 2 41 C5.91246097 37.85302053 8.359009 34.7502371 10 30 C10.52488932 23.96377283 10.7053738 18.53329066 8 13 C3.87008627 8.18176732 -0.72745151 5.20625932 -7 4 C-6.67 3.01 -6.34 2.02 -6 1 C-3 1 -3 1 0 2 C0 1.34 0 0.68 0 0 Z " fill="#2A2A2A" transform="translate(39,1)"/>
<path d="M0 0 C0.99 0.33 1.98 0.66 3 1 C2.34 1 1.68 1 1 1 C1 1.66 1 2.32 1 3 C1.78375 3.28875 2.5675 3.5775 3.375 3.875 C6 5 6 5 8 7 C9.9001177 8.24174796 9.9001177 8.24174796 12 9 C12.99 8.67 13.98 8.34 15 8 C14.34 9.32 13.68 10.64 13 12 C13.66 12.66 14.32 13.32 15 14 C15.33 14.66 15.66 15.32 16 16 C17.32 15.67 18.64 15.34 20 15 C20 15.66 20 16.32 20 17 C19.01 17.66 18.02 18.32 17 19 C17.66 20.98 18.32 22.96 19 25 C19.66 25 20.32 25 21 25 C21 25.66 21 26.32 21 27 C20.34 27.33 19.68 27.66 19 28 C19.020625 28.721875 19.04125 29.44375 19.0625 30.1875 C19.00113268 32.94902933 18.73901807 35.33953493 18 38 C17.01 38.495 17.01 38.495 16 39 C16.165 39.598125 16.33 40.19625 16.5 40.8125 C17 43 17 43 17 46 C14.08235 47.9451 12.37462715 48.45276317 9 49 C8.67 49.99 8.34 50.98 8 52 C7.34 52 6.68 52 6 52 C5.67 52.66 5.34 53.32 5 54 C2 54 2 54 -0.5625 51.75 C-2.57275078 49.48202476 -3.87225206 47.76810859 -5 45 C-4.29875 44.5875 -3.5975 44.175 -2.875 43.75 C-1.451875 42.88375 -1.451875 42.88375 0 42 C1.010625 41.443125 2.02125 40.88625 3.0625 40.3125 C6.86373328 37.32003975 8.67742942 34.65154084 10 30 C10.62783423 23.94924763 10.69500324 18.55019898 8 13 C3.87008627 8.18176732 -0.72745151 5.20625932 -7 4 C-6.67 3.01 -6.34 2.02 -6 1 C-3 1 -3 1 0 2 C0 1.34 0 0.68 0 0 Z " fill="#191919" transform="translate(39,1)"/>
<path d="M0 0 C2.12107407 0.45451587 3.85781735 0.91875277 5.75 2 C8.61696887 3.27420839 11.12676609 3.42131083 14.25 3.625 C15.32765625 3.69976562 16.4053125 3.77453125 17.515625 3.8515625 C18.33546875 3.90054688 19.1553125 3.94953125 20 4 C20.144375 4.61875 20.28875 5.2375 20.4375 5.875 C20.93152225 8.03258322 20.93152225 8.03258322 22 10 C24.01669827 11.13350534 24.01669827 11.13350534 26 12 C26 13.65 26 15.3 26 17 C24.741875 17.185625 23.48375 17.37125 22.1875 17.5625 C21.47980469 17.66691406 20.77210937 17.77132812 20.04296875 17.87890625 C18 18 18 18 15 17 C14.34 17.66 13.68 18.32 13 19 C12.01 18.67 11.02 18.34 10 18 C10.33 17.34 10.66 16.68 11 16 C9.948125 16.0825 8.89625 16.165 7.8125 16.25 C2.16109317 15.87941595 -0.19545872 12.81547387 -4 9 C-3.71125 8.43410156 -3.4225 7.86820313 -3.125 7.28515625 C-2.75375 6.55167969 -2.3825 5.81820312 -2 5.0625 C-1.62875 4.33160156 -1.2575 3.60070313 -0.875 2.84765625 C0.07133403 1.19009928 0.07133403 1.19009928 0 0 Z " fill="#080808" transform="translate(15,41)"/>
<path d="M0 0 C0.33 -0.33 0.66 -0.66 1 -1 C4.05760057 -1.26587831 6.20840805 -1.43409881 8.9375 0.0625 C10.68741799 3.25352692 9.91362414 5.58913653 9 9 C6.9375 10.9375 6.9375 10.9375 5 12 C5.33 11.46375 5.66 10.9275 6 10.375 C7.22699204 7.4608939 7.14233286 5.13132292 7 2 C5.35 2 3.7 2 2 2 C1.92504683 4.09212994 1.92504683 4.09212994 2.5625 6.4375 C3 9 3 9 2 12 C-0.0625 12.6875 -0.0625 12.6875 -2 13 C-1.01 13 -0.02 13 1 13 C1.66 13 2.32 13 3 13 C2.34 14.32 1.68 15.64 1 17 C-4.42703483 16.15660945 -7.75749272 12.18536401 -11 8 C-11.72018412 4.53002195 -11.59684693 3.15639092 -10 0.0625 C-6.69299707 -1.6943453 -3.63093482 -0.58563465 0 0 Z " fill="#E65757" transform="translate(31,18)"/>
<path d="M0 0 C0.99 0.33 1.98 0.66 3 1 C2.34 1 1.68 1 1 1 C1 1.66 1 2.32 1 3 C1.78375 3.28875 2.5675 3.5775 3.375 3.875 C6 5 6 5 8 7 C9.9001177 8.24174796 9.9001177 8.24174796 12 9 C12.99 8.67 13.98 8.34 15 8 C14.34 9.32 13.68 10.64 13 12 C13.66 12.66 14.32 13.32 15 14 C15.33 14.66 15.66 15.32 16 16 C17.32 15.67 18.64 15.34 20 15 C20 15.66 20 16.32 20 17 C19.01 17.66 18.02 18.32 17 19 C17.66 20.98 18.32 22.96 19 25 C19.66 25 20.32 25 21 25 C21 25.66 21 26.32 21 27 C20.34 27.33 19.68 27.66 19 28 C19.061875 28.78375 19.12375 29.5675 19.1875 30.375 C19.0946875 31.674375 19.0946875 31.674375 19 33 C18.01 33.66 17.02 34.32 16 35 C16 34.34 16 33.68 16 33 C15.34 33 14.68 33 14 33 C13.91773332 29.95613276 14.02391783 27.92824652 15 25 C14.401875 24.505 13.80375 24.01 13.1875 23.5 C11.11418287 21.13049471 10.51001946 19.94317697 9.5625 17.0625 C7.73752666 11.78381367 4.77629162 9.01502378 -0.0625 6.25 C-2.40505124 5.25316969 -4.5104122 4.47876688 -7 4 C-6.67 3.01 -6.34 2.02 -6 1 C-3 1 -3 1 0 2 C0 1.34 0 0.68 0 0 Z " fill="#444444" transform="translate(39,1)"/>
<path d="M0 0 C0.33 -0.33 0.66 -0.66 1 -1 C4.05760057 -1.26587831 6.20840805 -1.43409881 8.9375 0.0625 C10.68741799 3.25352692 9.91362414 5.58913653 9 9 C6.9375 10.9375 6.9375 10.9375 5 12 C5.33 11.46375 5.66 10.9275 6 10.375 C7.22699204 7.4608939 7.14233286 5.13132292 7 2 C4.4454459 1.92904016 2.23802245 1.94049439 -0.25 2.5625 C-0.8275 2.706875 -1.405 2.85125 -2 3 C-2.33 2.67 -2.66 2.34 -3 2 C-4.66617115 1.95936168 -6.33388095 1.957279 -8 2 C-8.67166707 4.74303896 -8.67166707 4.74303896 -8 8 C-5.64225298 10.48964895 -3.08107273 12.48597382 0 14 C0.99 13.67 1.98 13.34 3 13 C2.34 14.32 1.68 15.64 1 17 C-4.42703483 16.15660945 -7.75749272 12.18536401 -11 8 C-11.72018412 4.53002195 -11.59684693 3.15639092 -10 0.0625 C-6.69299707 -1.6943453 -3.63093482 -0.58563465 0 0 Z " fill="#FAE2E2" transform="translate(31,18)"/>
<path d="M0 0 C0.144375 0.61875 0.28875 1.2375 0.4375 1.875 C0.93152225 4.03258322 0.93152225 4.03258322 2 6 C4.02463255 6.65213292 4.02463255 6.65213292 6 7 C6 6.34 6 5.68 6 5 C6.99 5 7.98 5 9 5 C9 5.99 9 6.98 9 8 C8.34 8.66 7.68 9.32 7 10 C4.66666667 9.66666667 2.33333333 9.33333333 0 9 C-0.66 9.66 -1.32 10.32 -2 11 C-2.99 10.67 -3.98 10.34 -5 10 C-4.67 9.34 -4.34 8.68 -4 8 C-5.32 7.67 -6.64 7.34 -8 7 C-3.375 1.125 -3.375 1.125 0 0 Z M3 2 C3.33 2.99 3.66 3.98 4 5 C3.34 5 2.68 5 2 5 C2.33 4.01 2.66 3.02 3 2 Z " fill="#181818" transform="translate(30,49)"/>
<path d="M0 0 C2.31 0.66 4.62 1.32 7 2 C6.67 2.99 6.34 3.98 6 5 C6.66 5 7.32 5 8 5 C7.25 7.4375 7.25 7.4375 6 10 C3.875 10.8125 3.875 10.8125 2 11 C-2.00390625 6.60546875 -2.00390625 6.60546875 -3 5 C-2.67 4.01 -2.34 3.02 -2 2 C-1.34 2 -0.68 2 0 2 C0 1.34 0 0.68 0 0 Z " fill="#181818" transform="translate(17,46)"/>
<path d="M0 0 C0.99 0.33 1.98 0.66 3 1 C2.34 1 1.68 1 1 1 C1 1.66 1 2.32 1 3 C1.78375 3.28875 2.5675 3.5775 3.375 3.875 C6 5 6 5 8 7 C9.32392972 8.01241685 10.65599167 9.01439389 12 10 C11.34 10.66 10.68 11.32 10 12 C7.20571027 11.81371402 6.19499411 11.21666012 4.3125 9.125 C1.00388424 6.08465038 -2.73458306 5.20306632 -7 4 C-6.67 3.01 -6.34 2.02 -6 1 C-3 1 -3 1 0 2 C0 1.34 0 0.68 0 0 Z " fill="#3A3A3A" transform="translate(39,1)"/>
<path d="M0 0 C1.2065625 0.0309375 1.2065625 0.0309375 2.4375 0.0625 C3.37173645 3.07281744 3.48199911 3.92900268 2.4375 7.0625 C0.7875 7.0625 -0.8625 7.0625 -2.5625 7.0625 C-2.94383299 5.0710944 -3.27575582 3.06970923 -3.5625 1.0625 C-2.5625 0.0625 -2.5625 0.0625 0 0 Z " fill="#F5C0C0" transform="translate(30.5625,22.9375)"/>
<path d="M0 0 C1.32 0.33 2.64 0.66 4 1 C4 1.66 4 2.32 4 3 C3.01 3.495 3.01 3.495 2 4 C2.061875 4.78375 2.12375 5.5675 2.1875 6.375 C2.125625 7.24125 2.06375 8.1075 2 9 C1.01 9.66 0.02 10.32 -1 11 C-1 10.34 -1 9.68 -1 9 C-1.66 9 -2.32 9 -3 9 C-3.26218749 5.85375007 -3.24754367 4.38162983 -1.5 1.6875 C-1.005 1.130625 -0.51 0.57375 0 0 Z " fill="#6D6D6D" transform="translate(56,25)"/>
<path d="M0 0 C1.32 0 2.64 0 4 0 C3.49691315 3.72284268 2.88896023 5.57327341 0 8 C-0.66 8.66 -1.32 9.32 -2 10 C-2.66 8.35 -3.32 6.7 -4 5 C-3.34 5 -2.68 5 -2 5 C-1.34 3.35 -0.68 1.7 0 0 Z " fill="#0A0A0A" transform="translate(13,6)"/>
<path d="M0 0 C4 2 4 2 4.9375 3.875 C5.0225942 6.76820282 3.88243538 7.89167237 2 10 C1.34 9.67 0.68 9.34 0 9 C0 6.03 0 3.06 0 0 Z " fill="#040404" transform="translate(50,22)"/>
<path d="M0 0 C0.66 0 1.32 0 2 0 C1.67 0.66 1.34 1.32 1 2 C0.67 1.34 0.34 0.68 0 0 Z M-3 2 C0.39914975 3.13304992 1.05254451 4.12518475 3 7 C2.34 7.66 1.68 8.32 1 9 C0.01 8.67 -0.98 8.34 -2 8 C-1.67 7.34 -1.34 6.68 -1 6 C-2.32 5.67 -3.64 5.34 -5 5 C-4.34 4.01 -3.68 3.02 -3 2 Z " fill="#575757" transform="translate(27,51)"/>
<path d="M0 0 C0.928125 0.515625 1.85625 1.03125 2.8125 1.5625 C5.92757947 3.40096246 5.92757947 3.40096246 9 2 C8.34 3.32 7.68 4.64 7 6 C3.75728494 5.4409112 2.06942576 4.5867822 0 2 C0 1.34 0 0.68 0 0 Z " fill="#F9D9D9" transform="translate(25,29)"/>
<path d="M0 0 C0.99 0 1.98 0 3 0 C3 0.99 3 1.98 3 3 C2.34 3.66 1.68 4.32 1 5 C-1.625 4.625 -1.625 4.625 -4 4 C-4 3.34 -4 2.68 -4 2 C-2.68 2 -1.36 2 0 2 C0 1.34 0 0.68 0 0 Z " fill="#717171" transform="translate(36,54)"/>
<path d="M0 0 C0.66 0 1.32 0 2 0 C1.25 2.4375 1.25 2.4375 0 5 C-2.125 5.8125 -2.125 5.8125 -4 6 C-1.125 1.125 -1.125 1.125 0 0 Z " fill="#222222" transform="translate(23,51)"/>
<path d="M0 0 C0 0.99 0 1.98 0 3 C-0.66 3 -1.32 3 -2 3 C-2.33 4.65 -2.66 6.3 -3 8 C-3.99 6.68 -4.98 5.36 -6 4 C-4.02 2.68 -2.04 1.36 0 0 Z " fill="#505050" transform="translate(53,9)"/>
<path d="M0 0 C0.598125 0.165 1.19625 0.33 1.8125 0.5 C4.11344336 1.1114124 4.11344336 1.1114124 7 1 C5.515 2.485 5.515 2.485 4 4 C2.68 2.68 1.36 1.36 0 0 Z " fill="#D4D4D4" transform="translate(9,54)"/>
<path d="M0 0 C0.66 0 1.32 0 2 0 C1.67 0.99 1.34 1.98 1 3 C0.34 2.67 -0.32 2.34 -1 2 C-0.67 1.34 -0.34 0.68 0 0 Z " fill="#FFFFFF" transform="translate(42,56)"/>
<path d="M0 0 C0.99 0.495 0.99 0.495 2 1 C1.67 1.99 1.34 2.98 1 4 C0.67 2.68 0.34 1.36 0 0 Z " fill="#FFFFFF" transform="translate(52,50)"/>
<path d="M0 0 C0.66 0 1.32 0 2 0 C1.67 1.32 1.34 2.64 1 4 C0.67 2.68 0.34 1.36 0 0 Z " fill="#FFFFFF" transform="translate(57,42)"/>
<path d="M0 0 C1.32 0.33 2.64 0.66 4 1 C2.68 1.33 1.36 1.66 0 2 C0 1.34 0 0.68 0 0 Z " fill="#FFFFFF" transform="translate(17,1)"/>
<path d="M0 0 C0.66 0 1.32 0 2 0 C2 0.99 2 1.98 2 3 C1.34 2.67 0.68 2.34 0 2 C0 1.34 0 0.68 0 0 Z " fill="#CCCCCC" transform="translate(0,38)"/>
<path d="M0 0 C1.485 0.99 1.485 0.99 3 2 C1.68 1.67 0.36 1.34 -1 1 C-0.67 0.67 -0.34 0.34 0 0 Z " fill="#FFFFFF" transform="translate(10,3)"/>
<path d="M0 0 C0.99 0.33 1.98 0.66 3 1 C2.01 1.33 1.02 1.66 0 2 C0 1.34 0 0.68 0 0 Z " fill="#BFBFBF" transform="translate(3,46)"/>
<path d="M0 0 C0.66 0.66 1.32 1.32 2 2 C1.01 1.67 0.02 1.34 -1 1 C-0.67 0.67 -0.34 0.34 0 0 Z " fill="#BFBFBF" transform="translate(58,34)"/>
<path d="M0 0 C0.99 0.33 1.98 0.66 3 1 C2.01 1.33 1.02 1.66 0 2 C0 1.34 0 0.68 0 0 Z " fill="#FFFFFF" transform="translate(2,16)"/>
<path d="M0 0 C4 1 4 1 4 1 Z " fill="#BFBFBF" transform="translate(5,10)"/>
<path d="M0 0 C0.66 0 1.32 0 2 0 C1.67 0.66 1.34 1.32 1 2 C0.67 1.34 0.34 0.68 0 0 Z " fill="#AAAAAA" transform="translate(38,58)"/>
<path d="M0 0 C0.66 0.66 1.32 1.32 2 2 C1.34 2 0.68 2 0 2 C0 1.34 0 0.68 0 0 Z " fill="#FFFFFF" transform="translate(5,49)"/>
<path d="M0 0 C0.66 0.66 1.32 1.32 2 2 C1.34 2 0.68 2 0 2 C0 1.34 0 0.68 0 0 Z " fill="#FFFFFF" transform="translate(7,6)"/>
<path d="" fill="#FFFFFF" transform="translate(0,0)"/>
<path d="M0 0 C2 1 2 1 2 1 Z " fill="#FFFFFF" transform="translate(23,58)"/>
<path d="M0 0 C2 1 2 1 2 1 Z " fill="#FFFFFF" transform="translate(15,57)"/>
<path d="" fill="#FFFFFF" transform="translate(0,0)"/>
<path d="" fill="#7F7F7F" transform="translate(0,0)"/>
<path d="" fill="#FFFFFF" transform="translate(0,0)"/>
<path d="M0 0 C2 1 2 1 2 1 Z " fill="#FFFFFF" transform="translate(4,14)"/>
<path d="" fill="#FFFFFF" transform="translate(0,0)"/>
<path d="M0 0 C2 1 2 1 2 1 Z " fill="#7F7F7F" transform="translate(5,12)"/>
<path d="" fill="#FFFFFF" transform="translate(0,0)"/>
<path d="M0 0 C2 1 2 1 2 1 Z " fill="#FFFFFF" transform="translate(9,6)"/>
<path d="M0 0 C2 1 2 1 2 1 Z " fill="#FFFFFF" transform="translate(45,5)"/>
<path d="M0 0 C2 1 2 1 2 1 Z " fill="#7F7F7F" transform="translate(33,1)"/>
<path d="" fill="#FFFFFF" transform="translate(0,0)"/>
<path d="" fill="#FFFFFF" transform="translate(0,0)"/>
<path d="" fill="#FFFFFF" transform="translate(0,0)"/>
<path d="" fill="#000000" transform="translate(0,0)"/>
<path d="" fill="#FFFFFF" transform="translate(0,0)"/>
<path d="" fill="#FFFFFF" transform="translate(0,0)"/>
<path d="" fill="#000000" transform="translate(0,0)"/>
<path d="" fill="#FFFFFF" transform="translate(0,0)"/>
<path d="" fill="#FFFFFF" transform="translate(0,0)"/>
<path d="" fill="#FFFFFF" transform="translate(0,0)"/>
<path d="" fill="#FFFFFF" transform="translate(0,0)"/>
<path d="" fill="#FFFFFF" transform="translate(0,0)"/>
<path d="" fill="#FFFFFF" transform="translate(0,0)"/>
<path d="" fill="#FFFFFF" transform="translate(0,0)"/>
<path d="" fill="#FFFFFF" transform="translate(0,0)"/>
<path d="" fill="#FFFFFF" transform="translate(0,0)"/>
<path d="" fill="#FFFFFF" transform="translate(0,0)"/>
<path d="" fill="#FFFFFF" transform="translate(0,0)"/>
<path d="" fill="#000000" transform="translate(0,0)"/>
<path d="" fill="#FFFFFF" transform="translate(0,0)"/>
<path d="" fill="#FFFFFF" transform="translate(0,0)"/>
<path d="" fill="#FFFFFF" transform="translate(0,0)"/>
<path d="" fill="#FFFFFF" transform="translate(0,0)"/>
<path d="" fill="#000000" transform="translate(0,0)"/>
<path d="" fill="#FFFFFF" transform="translate(0,0)"/>
<path d="" fill="#FFFFFF" transform="translate(0,0)"/>
<path d="" fill="#FFFFFF" transform="translate(0,0)"/>
<path d="" fill="#FFFFFF" transform="translate(0,0)"/>
<path d="" fill="#000000" transform="translate(0,0)"/>
<path d="" fill="#FFFFFF" transform="translate(0,0)"/>
<path d="" fill="#FFFFFF" transform="translate(0,0)"/>
<path d="" fill="#000000" transform="translate(0,0)"/>
<path d="" fill="#FFFFFF" transform="translate(0,0)"/>
<path d="" fill="#FFFFFF" transform="translate(0,0)"/>
<path d="" fill="#000000" transform="translate(0,0)"/>
<path d="" fill="#FFFFFF" transform="translate(0,0)"/>
<path d="" fill="#FFFFFF" transform="translate(0,0)"/>
<path d="" fill="#FFFFFF" transform="translate(0,0)"/>
<path d="" fill="#000000" transform="translate(0,0)"/>
<path d="" fill="#FFFFFF" transform="translate(0,0)"/>
<path d="" fill="#FFFFFF" transform="translate(0,0)"/>
<path d="" fill="#FFFFFF" transform="translate(0,0)"/>
<path d="" fill="#FFFFFF" transform="translate(0,0)"/>
<path d="" fill="#FFFFFF" transform="translate(0,0)"/>
<path d="" fill="#FFFFFF" transform="translate(0,0)"/>
<path d="" fill="#FFFFFF" transform="translate(0,0)"/>
<path d="" fill="#FFFFFF" transform="translate(0,0)"/>
<path d="" fill="#FFFFFF" transform="translate(0,0)"/>
<path d="" fill="#000000" transform="translate(0,0)"/>
<path d="" fill="#FFFFFF" transform="translate(0,0)"/>
<path d="" fill="#FFFFFF" transform="translate(0,0)"/>
</svg>
