<?xml version="1.0" encoding="UTF-8"?>
<svg version="1.1" xmlns="http://www.w3.org/2000/svg" width="36" height="33">
<path d="M0 0 C0.73863281 0.2165625 1.47726563 0.433125 2.23828125 0.65625 C5.00759019 1.78274855 6.2334614 2.53716152 8 5 C9.05783351 10.91142254 8.44485662 17.05004273 8 23 C4.37 23 0.74 23 -3 23 C-3 20.36 -3 17.72 -3 15 C-3.66 15 -4.32 15 -5 15 C-5 17.64 -5 20.28 -5 23 C-8.63 23 -12.26 23 -16 23 C-17.66856349 7.07280309 -17.66856349 7.07280309 -13.7265625 2.17578125 C-8.60048368 -1.21182848 -5.69539032 -2.92166127 0 0 Z M-11.58203125 5.0234375 C-14.62093044 9.25947879 -13.45734082 15.04184476 -13 20 C-11.68 20 -10.36 20 -9 20 C-9 17.36 -9 14.72 -9 12 C-5.7 12 -2.4 12 1 12 C1 14.64 1 17.28 1 20 C2.32 20 3.64 20 5 20 C6.03913563 12.15066177 6.03913563 12.15066177 3.58203125 5.0234375 C-1.7175582 1.15891811 -6.2824418 1.15891811 -11.58203125 5.0234375 Z " fill="#FFFFFF" transform="translate(22,6)"/>
</svg>
