<?xml version="1.0" encoding="UTF-8"?>
<svg version="1.1" xmlns="http://www.w3.org/2000/svg" width="24" height="24">
<path d="M0 0 C4.34586828 -0.39507893 6.32003497 -0.45331002 10 2 C10.1875 5.625 10.1875 5.625 10 9 C11.32 9.33 12.64 9.66 14 10 C14.02687279 11.81242052 14.04633715 13.62495233 14.0625 15.4375 C14.07410156 16.44683594 14.08570312 17.45617187 14.09765625 18.49609375 C14 21 14 21 13 22 C11.66956375 22.0983721 10.33406656 22.13078592 9 22.1328125 C8.195625 22.13410156 7.39125 22.13539062 6.5625 22.13671875 C5.716875 22.13285156 4.87125 22.12898438 4 22.125 C3.154375 22.12886719 2.30875 22.13273437 1.4375 22.13671875 C0.633125 22.13542969 -0.17125 22.13414063 -1 22.1328125 C-1.7425 22.13168457 -2.485 22.13055664 -3.25 22.12939453 C-5 22 -5 22 -6 21 C-6.07226502 19.14712498 -6.0838122 17.29166122 -6.0625 15.4375 C-6.05347656 14.42558594 -6.04445313 13.41367188 -6.03515625 12.37109375 C-6.02355469 11.58863281 -6.01195312 10.80617188 -6 10 C-4.68 9.67 -3.36 9.34 -2 9 C-2.04125 8.071875 -2.0825 7.14375 -2.125 6.1875 C-2 3 -2 3 0 0 Z M4 2 C1.92022703 3.22590192 1.92022703 3.22590192 0 5 C0 6.32 0 7.64 0 9 C2.64 9 5.28 9 8 9 C7.72965366 6.56282742 7.72965366 6.56282742 7 4 C6.01 3.34 5.02 2.68 4 2 Z M-4 12 C-4.16666667 15.5 -4.16666667 15.5 -4 19 C-2.86687244 20.35860893 -2.86687244 20.35860893 0.125 20.1328125 C1.40375 20.13023438 2.6825 20.12765625 4 20.125 C5.27875 20.12757812 6.5575 20.13015625 7.875 20.1328125 C10.86687244 20.35860893 10.86687244 20.35860893 12 19 C12.16666667 15.5 12.16666667 15.5 12 12 C10.86687244 10.64139107 10.86687244 10.64139107 7.875 10.8671875 C6.59625 10.86976562 5.3175 10.87234375 4 10.875 C2.72125 10.87242188 1.4425 10.86984375 0.125 10.8671875 C-2.86687244 10.64139107 -2.86687244 10.64139107 -4 12 Z " fill="#A5A5A5" transform="translate(8,1)"/>
</svg>
