<?xml version="1.0" encoding="UTF-8"?>
<svg version="1.1" xmlns="http://www.w3.org/2000/svg" width="24" height="24">
<path d="M0 0 C0.89460937 -0.00128906 1.78921875 -0.00257812 2.7109375 -0.00390625 C3.65195313 -0.00003906 4.59296875 0.00382813 5.5625 0.0078125 C6.97402344 0.00201172 6.97402344 0.00201172 8.4140625 -0.00390625 C9.75597656 -0.00197266 9.75597656 -0.00197266 11.125 0 C11.95128906 0.00112793 12.77757813 0.00225586 13.62890625 0.00341797 C15.5625 0.1328125 15.5625 0.1328125 16.5625 1.1328125 C16.66231214 3.8101263 16.70129875 6.45585425 16.6875 9.1328125 C16.69330078 10.25816406 16.69330078 10.25816406 16.69921875 11.40625 C16.68911053 17.00620197 16.68911053 17.00620197 15.5625 18.1328125 C14.08597336 18.23162047 12.60482764 18.26360495 11.125 18.265625 C9.78308594 18.26755859 9.78308594 18.26755859 8.4140625 18.26953125 C7.47304687 18.26566406 6.53203125 18.26179688 5.5625 18.2578125 C4.15097656 18.26361328 4.15097656 18.26361328 2.7109375 18.26953125 C1.81632813 18.26824219 0.92171875 18.26695313 0 18.265625 C-0.82628906 18.26449707 -1.65257812 18.26336914 -2.50390625 18.26220703 C-4.4375 18.1328125 -4.4375 18.1328125 -5.4375 17.1328125 C-5.53731214 14.4554987 -5.57629875 11.80977075 -5.5625 9.1328125 C-5.56636719 8.38257813 -5.57023438 7.63234375 -5.57421875 6.859375 C-5.56185091 0.00759223 -5.56185091 0.00759223 0 0 Z M-2.4375 2.1328125 C1.50022744 6.42974269 1.50022744 6.42974269 6.5625 8.1328125 C9.1767598 6.79300435 11.41382275 5.13287806 13.5625 3.1328125 C13.5625 2.8028125 13.5625 2.4728125 13.5625 2.1328125 C8.2825 2.1328125 3.0025 2.1328125 -2.4375 2.1328125 Z M-3.4375 6.1328125 C-3.46439216 7.61188142 -3.48384621 9.09108733 -3.5 10.5703125 C-3.51160156 11.39402344 -3.52320313 12.21773437 -3.53515625 13.06640625 C-3.67017348 15.12445188 -3.67017348 15.12445188 -2.4375 16.1328125 C0.2398138 16.23262464 2.88554175 16.27161125 5.5625 16.2578125 C6.68785156 16.26361328 6.68785156 16.26361328 7.8359375 16.26953125 C11.49856117 16.60956791 11.49856117 16.60956791 14.5625 15.1328125 C14.63429964 13.61353212 14.64642007 12.09113768 14.625 10.5703125 C14.61597656 9.74402344 14.60695313 8.91773438 14.59765625 8.06640625 C14.58605469 7.42832031 14.57445313 6.79023438 14.5625 6.1328125 C13.510625 6.8134375 12.45875 7.4940625 11.375 8.1953125 C8.91248572 9.5897483 7.87838929 10.14051712 5 10.0703125 C2.07502057 8.94532041 -0.67501588 7.61042029 -3.4375 6.1328125 Z " fill="#A5A5A5" transform="translate(6.4375,2.8671875)"/>
</svg>
