<?xml version="1.0" encoding="UTF-8"?>
<svg version="1.1" xmlns="http://www.w3.org/2000/svg" width="31" height="31">
<path d="M0 0 C1.084021 0.00523682 2.16804199 0.01047363 3.28491211 0.01586914 C5.03964844 0.02070312 5.03964844 0.02070312 6.82983398 0.02563477 C8.67738281 0.03820312 8.67738281 0.03820312 10.56225586 0.05102539 C12.41560547 0.05779297 12.41560547 0.05779297 14.30639648 0.06469727 C17.37089703 0.07652931 20.43530307 0.09301366 23.49975586 0.11352539 C23.49975586 1.10352539 23.49975586 2.09352539 23.49975586 3.11352539 C15.90975586 3.11352539 8.31975586 3.11352539 0.49975586 3.11352539 C0.49975586 7.73352539 0.49975586 12.35352539 0.49975586 17.11352539 C4.78975586 17.11352539 9.07975586 17.11352539 13.49975586 17.11352539 C13.49975586 18.43352539 13.49975586 19.75352539 13.49975586 21.11352539 C7.22975586 21.11352539 0.95975586 21.11352539 -5.50024414 21.11352539 C-5.50024414 19.79352539 -5.50024414 18.47352539 -5.50024414 17.11352539 C-4.84024414 17.11352539 -4.18024414 17.11352539 -3.50024414 17.11352539 C-3.5118457 15.97012695 -3.52344727 14.82672852 -3.53540039 13.64868164 C-3.54477702 12.15779785 -3.55387735 10.6669123 -3.56274414 9.17602539 C-3.57112305 8.4212793 -3.57950195 7.6665332 -3.58813477 6.88891602 C-3.59676855 4.96358226 -3.55248747 3.03816958 -3.50024414 1.11352539 C-2.50024414 0.11352539 -2.50024414 0.11352539 0 0 Z " fill="#FFFFFF" transform="translate(5.500244140625,4.886474609375)"/>
<path d="M0 0 C2.57161458 0.03255208 5.14322917 0.06510417 7.71484375 0.09765625 C7.71484375 5.37765625 7.71484375 10.65765625 7.71484375 16.09765625 C4.08484375 16.09765625 0.45484375 16.09765625 -3.28515625 16.09765625 C-3.3120072 13.61841824 -3.33192172 11.13946785 -3.34765625 8.66015625 C-3.36022461 7.59958008 -3.36022461 7.59958008 -3.37304688 6.51757812 C-3.38169213 4.71072066 -3.33735636 2.90378022 -3.28515625 1.09765625 C-2.28515625 0.09765625 -2.28515625 0.09765625 0 0 Z M0.71484375 3.09765625 C0.71484375 6.06765625 0.71484375 9.03765625 0.71484375 12.09765625 C2.03484375 12.09765625 3.35484375 12.09765625 4.71484375 12.09765625 C4.71484375 9.12765625 4.71484375 6.15765625 4.71484375 3.09765625 C3.39484375 3.09765625 2.07484375 3.09765625 0.71484375 3.09765625 Z " fill="#FFFFFF" transform="translate(23.28515625,9.90234375)"/>
</svg>
