<?xml version="1.0" encoding="UTF-8"?>
<svg version="1.1" xmlns="http://www.w3.org/2000/svg" width="28" height="27">
<path d="M0 0 C2.375 -0.1875 2.375 -0.1875 5 0 C5.66 0.99 6.32 1.98 7 3 C7.61875 2.814375 8.2375 2.62875 8.875 2.4375 C11 2 11 2 13 3 C13 4.65 13 6.3 13 8 C14.32 8.33 15.64 8.66 17 9 C16.6875 10.9375 16.6875 10.9375 16 13 C15.01 13.33 14.02 13.66 13 14 C13.061875 14.928125 13.12375 15.85625 13.1875 16.8125 C13 20 13 20 11.625 21.8125 C7.67765352 24.69709935 3.73581806 24.46346974 -1 24 C-4.01720386 22.56682817 -4.72779353 21.73884613 -5.875 18.625 C-6.02015824 15.57667699 -5.32221288 13.722203 -4 11 C-5.32 10.67 -6.64 10.34 -8 10 C-7.67 8.35 -7.34 6.7 -7 5 C-6.01 4.67 -5.02 4.34 -4 4 C-3.34 4.33 -2.68 4.66 -2 5 C-1.34 3.35 -0.68 1.7 0 0 Z M2 2 C1.67 2.99 1.34 3.98 1 5 C1.99 5 2.98 5 4 5 C3.67 4.01 3.34 3.02 3 2 C2.67 2 2.34 2 2 2 Z M-2 5 C-1 7 -1 7 -1 7 Z M9 5 C9.33 5.66 9.66 6.32 10 7 C10.33 6.34 10.66 5.68 11 5 C10.34 5 9.68 5 9 5 Z M5 6 C4.67 6.66 4.34 7.32 4 8 C4.99 7.67 5.98 7.34 7 7 C6.34 6.67 5.68 6.34 5 6 Z M-6 7 C-5.34 7.66 -4.68 8.32 -4 9 C-4 8.34 -4 7.68 -4 7 C-4.66 7 -5.32 7 -6 7 Z M-1 7 C-1 7.66 -1 8.32 -1 9 C-0.34 9 0.32 9 1 9 C1 8.34 1 7.68 1 7 C0.34 7 -0.32 7 -1 7 Z M9 9 C9.66 9.66 10.32 10.32 11 11 C11 10.34 11 9.68 11 9 C10.34 9 9.68 9 9 9 Z M-1.4375 12.6875 C-3.28375254 14.90802071 -3.28375254 14.90802071 -2.8125 17.6875 C-2.21073101 19.93351267 -2.21073101 19.93351267 -1 21 C0.66429051 21.09823937 2.33281931 21.12973631 4 21.125 C4.9075 21.12757812 5.815 21.13015625 6.75 21.1328125 C8.96966611 21.25173779 8.96966611 21.25173779 10 20 C10.37581502 15.87204872 10.37581502 15.87204872 8.875 12.125 C5.13600671 9.88160403 2.06850321 10.26026701 -1.4375 12.6875 Z " fill="#131314" transform="translate(10,2)"/>
</svg>
