<?xml version="1.0" encoding="UTF-8"?>
<svg version="1.1" xmlns="http://www.w3.org/2000/svg" width="32" height="29">
<path d="M0 0 C3.16115776 1.36983503 3.9927092 1.9890638 6 5 C6.375 7.875 6.375 7.875 6 11 C5.360625 11.763125 4.72125 12.52625 4.0625 13.3125 C1.11713221 17.15040349 1.28563008 20.21569613 1 25 C-4.28 25 -9.56 25 -15 25 C-15.2475 22.4425 -15.495 19.885 -15.75 17.25 C-15.83862305 16.45110352 -15.92724609 15.65220703 -16.01855469 14.82910156 C-16.2971362 11.30690852 -16.30605723 9.42969625 -14.23046875 6.515625 C-11.25621623 4.49459177 -8.53402788 4.49600391 -5 4 C-2.1125127 2.07606449 -2.1125127 2.07606449 0 0 Z M0 4 C-0.99 4.66 -1.98 5.32 -3 6 C-5.32387947 6.39387788 -7.65793749 6.73486085 -10 7 C-10 7.66 -10 8.32 -10 9 C-9.484375 9.4125 -8.96875 9.825 -8.4375 10.25 C-7.963125 10.8275 -7.48875 11.405 -7 12 C-7.3125 15.1875 -7.3125 15.1875 -8 18 C-9.32 17.34 -10.64 16.68 -12 16 C-12 17.98 -12 19.96 -12 22 C-8.7 22 -5.4 22 -2 22 C-1.9175 20.9275 -1.835 19.855 -1.75 18.75 C-0.91517942 14.57589709 0.06692529 13.83845939 3 11 C3.58402133 8.41417872 3.58402133 8.41417872 3 6 C2.01 5.34 1.02 4.68 0 4 Z " fill="#FFFFFF" transform="translate(21,2)"/>
</svg>
