<?xml version="1.0" encoding="UTF-8"?>
<svg version="1.1" xmlns="http://www.w3.org/2000/svg" width="28" height="27">
<path d="M0 0 C0.9796875 0.00515625 1.959375 0.0103125 2.96875 0.015625 C3.9484375 0.01046875 4.928125 0.0053125 5.9375 0 C8.46875 0.265625 8.46875 0.265625 10.46875 2.265625 C10.59375 5.890625 10.59375 5.890625 10.46875 9.265625 C11.5825 9.224375 12.69625 9.183125 13.84375 9.140625 C17.46875 9.265625 17.46875 9.265625 19.46875 11.265625 C19.734375 13.796875 19.734375 13.796875 19.71875 16.765625 C19.72390625 17.7453125 19.7290625 18.725 19.734375 19.734375 C19.46875 22.265625 19.46875 22.265625 17.46875 24.265625 C14.9375 24.49609375 14.9375 24.49609375 11.96875 24.453125 C10.49921875 24.44345703 10.49921875 24.44345703 9 24.43359375 C6.46875 24.265625 6.46875 24.265625 4.46875 23.265625 C4.46875 20.955625 4.46875 18.645625 4.46875 16.265625 C3.169375 16.141875 1.87 16.018125 0.53125 15.890625 C-1.68359375 15.6796875 -1.68359375 15.6796875 -3.53125 15.265625 C-4.83214831 12.66382837 -4.69965078 10.6687062 -4.71875 7.765625 C-4.73292969 6.7859375 -4.74710937 5.80625 -4.76171875 4.796875 C-4.439468 1.25757858 -3.52884184 0.37031056 0 0 Z M-2.53125 4.265625 C-2.57217937 6.59859933 -2.57366723 8.93267725 -2.53125 11.265625 C-1.54125 10.275625 -0.55125 9.285625 0.46875 8.265625 C0.13875 7.275625 -0.19125 6.285625 -0.53125 5.265625 C2.10875 4.935625 4.74875 4.605625 7.46875 4.265625 C7.46875 3.935625 7.46875 3.605625 7.46875 3.265625 C5.98968108 3.23873284 4.51047517 3.21927879 3.03125 3.203125 C2.20753906 3.19152344 1.38382812 3.17992187 0.53515625 3.16796875 C-1.52288938 3.03295152 -1.52288938 3.03295152 -2.53125 4.265625 Z M7.46875 4.265625 C7.46875 5.255625 7.46875 6.245625 7.46875 7.265625 C6.47875 7.760625 6.47875 7.760625 5.46875 8.265625 C6.45875 8.595625 7.44875 8.925625 8.46875 9.265625 C8.46875 7.615625 8.46875 5.965625 8.46875 4.265625 C8.13875 4.265625 7.80875 4.265625 7.46875 4.265625 Z M6.46875 12.265625 C6.46875 15.235625 6.46875 18.205625 6.46875 21.265625 C7.78875 21.595625 9.10875 21.925625 10.46875 22.265625 C9.80875 21.935625 9.14875 21.605625 8.46875 21.265625 C7.84375 18.703125 7.84375 18.703125 7.46875 16.265625 C8.12875 15.935625 8.78875 15.605625 9.46875 15.265625 C8.80875 15.265625 8.14875 15.265625 7.46875 15.265625 C7.46875 14.605625 7.46875 13.945625 7.46875 13.265625 C10.43875 13.265625 13.40875 13.265625 16.46875 13.265625 C16.13875 12.605625 15.80875 11.945625 15.46875 11.265625 C10.81822128 10.99629979 10.81822128 10.99629979 6.46875 12.265625 Z M16.46875 13.265625 C16.46875 13.925625 16.46875 14.585625 16.46875 15.265625 C15.47875 15.760625 15.47875 15.760625 14.46875 16.265625 C14.46875 17.585625 14.46875 18.905625 14.46875 20.265625 C14.13875 20.925625 13.80875 21.585625 13.46875 22.265625 C14.78875 21.605625 16.10875 20.945625 17.46875 20.265625 C17.46875 17.955625 17.46875 15.645625 17.46875 13.265625 C17.13875 13.265625 16.80875 13.265625 16.46875 13.265625 Z " fill="#131314" transform="translate(6.53125,0.734375)"/>
</svg>
